<svg xmlns="http://www.w3.org/2000/svg" xmlns:xlink="http://www.w3.org/1999/xlink" zoomAndPan="magnify" preserveAspectRatio="xMidYMid meet" version="1.0" viewBox="116.8 116.8 141.75 141.75"><defs><clipPath id="9d3fe00a6e"><path d="M 161 116.800781 L 252 116.800781 L 252 182 L 161 182 Z M 161 116.800781 " clip-rule="nonzero"/></clipPath><clipPath id="1c650d359a"><path d="M 168 184 L 258.550781 184 L 258.550781 258.550781 L 168 258.550781 Z M 168 184 " clip-rule="nonzero"/></clipPath><clipPath id="86dfcc0368"><path d="M 116.800781 155 L 207 155 L 207 230 L 116.800781 230 Z M 116.800781 155 " clip-rule="nonzero"/></clipPath></defs><g clip-path="url(#9d3fe00a6e)"><path fill="#0866ff" d="M 215.039062 181.070312 C 214.21875 181.078125 213.503906 180.8125 212.886719 180.269531 C 212.566406 179.984375 212.308594 179.648438 212.121094 179.261719 C 211.9375 178.878906 211.828125 178.46875 211.804688 178.039062 C 211.78125 177.613281 211.839844 177.195312 211.984375 176.789062 C 212.125 176.386719 212.34375 176.023438 212.628906 175.707031 L 215.488281 172.492188 C 216.132812 171.777344 216.9375 171.425781 217.898438 171.429688 L 242.128906 171.429688 C 242.558594 171.429688 242.964844 171.351562 243.359375 171.1875 C 243.753906 171.023438 244.101562 170.792969 244.402344 170.488281 C 244.703125 170.1875 244.9375 169.839844 245.101562 169.449219 C 245.261719 169.054688 245.34375 168.644531 245.34375 168.21875 L 245.34375 126.441406 C 245.34375 126.015625 245.261719 125.605469 245.101562 125.210938 C 244.9375 124.816406 244.703125 124.46875 244.402344 124.167969 C 244.101562 123.867188 243.753906 123.636719 243.359375 123.472656 C 242.964844 123.308594 242.558594 123.226562 242.128906 123.226562 L 171.429688 123.226562 C 171.003906 123.226562 170.59375 123.308594 170.203125 123.472656 C 169.808594 123.636719 169.460938 123.867188 169.160156 124.167969 C 168.859375 124.46875 168.625 124.816406 168.460938 125.210938 C 168.300781 125.605469 168.21875 126.015625 168.21875 126.441406 L 168.21875 148.9375 C 168.21875 149.363281 168.136719 149.773438 167.972656 150.167969 C 167.808594 150.558594 167.578125 150.90625 167.277344 151.207031 C 166.976562 151.511719 166.628906 151.742188 166.234375 151.90625 C 165.839844 152.066406 165.429688 152.148438 165.003906 152.148438 C 164.578125 152.148438 164.167969 152.066406 163.773438 151.90625 C 163.378906 151.742188 163.035156 151.511719 162.730469 151.207031 C 162.429688 150.90625 162.199219 150.558594 162.035156 150.167969 C 161.871094 149.773438 161.789062 149.363281 161.789062 148.9375 L 161.789062 126.441406 C 161.789062 125.808594 161.851562 125.179688 161.976562 124.558594 C 162.097656 123.9375 162.28125 123.335938 162.523438 122.75 C 162.765625 122.167969 163.0625 121.609375 163.414062 121.085938 C 163.765625 120.558594 164.167969 120.070312 164.613281 119.625 C 165.0625 119.175781 165.550781 118.777344 166.074219 118.425781 C 166.601562 118.074219 167.15625 117.777344 167.742188 117.535156 C 168.328125 117.292969 168.929688 117.109375 169.550781 116.984375 C 170.171875 116.863281 170.796875 116.800781 171.429688 116.800781 L 242.128906 116.800781 C 242.765625 116.800781 243.390625 116.863281 244.011719 116.984375 C 244.632812 117.109375 245.234375 117.292969 245.820312 117.535156 C 246.40625 117.777344 246.960938 118.074219 247.488281 118.425781 C 248.011719 118.777344 248.5 119.175781 248.949219 119.625 C 249.394531 120.070312 249.796875 120.558594 250.148438 121.085938 C 250.5 121.609375 250.796875 122.167969 251.039062 122.75 C 251.28125 123.335938 251.460938 123.9375 251.585938 124.558594 C 251.710938 125.179688 251.769531 125.808594 251.769531 126.441406 L 251.769531 168.21875 C 251.769531 168.851562 251.710938 169.476562 251.585938 170.097656 C 251.460938 170.71875 251.28125 171.324219 251.039062 171.90625 C 250.796875 172.492188 250.5 173.046875 250.148438 173.574219 C 249.796875 174.101562 249.394531 174.585938 248.949219 175.035156 C 248.5 175.484375 248.011719 175.882812 247.488281 176.234375 C 246.960938 176.585938 246.40625 176.882812 245.820312 177.125 C 245.234375 177.367188 244.632812 177.550781 244.011719 177.671875 C 243.390625 177.796875 242.765625 177.859375 242.128906 177.859375 L 219.347656 177.859375 L 217.417969 180.011719 C 216.78125 180.714844 215.988281 181.070312 215.039062 181.070312 Z M 215.039062 181.070312 " fill-opacity="1" fill-rule="nonzero"/></g><g clip-path="url(#1c650d359a)"><path fill="#0866ff" d="M 212.855469 258.199219 C 211.894531 258.207031 211.089844 257.851562 210.445312 257.136719 L 199.9375 245.34375 L 177.859375 245.34375 C 177.226562 245.34375 176.597656 245.28125 175.976562 245.160156 C 175.355469 245.035156 174.753906 244.851562 174.167969 244.609375 C 173.585938 244.367188 173.027344 244.070312 172.503906 243.71875 C 171.976562 243.367188 171.488281 242.96875 171.042969 242.519531 C 170.59375 242.074219 170.195312 241.585938 169.84375 241.058594 C 169.492188 240.535156 169.195312 239.976562 168.953125 239.394531 C 168.710938 238.808594 168.527344 238.207031 168.402344 237.585938 C 168.28125 236.964844 168.21875 236.335938 168.21875 235.703125 L 168.21875 193.925781 C 168.21875 193.292969 168.28125 192.667969 168.402344 192.046875 C 168.527344 191.425781 168.710938 190.820312 168.953125 190.238281 C 169.195312 189.652344 169.492188 189.097656 169.84375 188.570312 C 170.195312 188.042969 170.59375 187.558594 171.042969 187.109375 C 171.488281 186.660156 171.976562 186.261719 172.503906 185.910156 C 173.027344 185.558594 173.585938 185.261719 174.167969 185.019531 C 174.753906 184.777344 175.355469 184.59375 175.976562 184.472656 C 176.597656 184.347656 177.226562 184.285156 177.859375 184.285156 L 248.558594 184.285156 C 249.191406 184.285156 249.816406 184.347656 250.4375 184.472656 C 251.058594 184.59375 251.664062 184.777344 252.246094 185.019531 C 252.832031 185.261719 253.386719 185.558594 253.914062 185.910156 C 254.441406 186.261719 254.925781 186.660156 255.375 187.109375 C 255.824219 187.558594 256.222656 188.042969 256.574219 188.570312 C 256.925781 189.097656 257.222656 189.652344 257.464844 190.238281 C 257.707031 190.820312 257.890625 191.425781 258.011719 192.046875 C 258.136719 192.667969 258.199219 193.292969 258.199219 193.925781 L 258.199219 235.703125 C 258.199219 236.335938 258.136719 236.964844 258.011719 237.585938 C 257.890625 238.207031 257.707031 238.808594 257.464844 239.394531 C 257.222656 239.976562 256.925781 240.535156 256.574219 241.058594 C 256.222656 241.585938 255.824219 242.074219 255.375 242.519531 C 254.925781 242.96875 254.441406 243.367188 253.914062 243.71875 C 253.386719 244.070312 252.832031 244.367188 252.246094 244.609375 C 251.664062 244.851562 251.058594 245.035156 250.4375 245.160156 C 249.816406 245.28125 249.191406 245.34375 248.558594 245.34375 L 225.773438 245.34375 L 215.234375 257.136719 C 214.597656 257.84375 213.804688 258.195312 212.855469 258.199219 Z M 177.859375 190.714844 C 177.433594 190.714844 177.023438 190.792969 176.628906 190.957031 C 176.234375 191.121094 175.886719 191.351562 175.585938 191.652344 C 175.285156 191.957031 175.054688 192.304688 174.890625 192.695312 C 174.726562 193.089844 174.644531 193.5 174.644531 193.925781 L 174.644531 235.703125 C 174.644531 236.128906 174.726562 236.539062 174.890625 236.933594 C 175.054688 237.328125 175.285156 237.675781 175.585938 237.976562 C 175.886719 238.277344 176.234375 238.507812 176.628906 238.671875 C 177.023438 238.835938 177.433594 238.917969 177.859375 238.917969 L 201.351562 238.917969 C 202.3125 238.910156 203.117188 239.261719 203.761719 239.976562 L 212.855469 250.164062 L 221.917969 239.976562 C 222.5625 239.261719 223.363281 238.910156 224.328125 238.917969 L 248.558594 238.917969 C 248.984375 238.917969 249.394531 238.835938 249.789062 238.671875 C 250.179688 238.507812 250.527344 238.277344 250.832031 237.976562 C 251.132812 237.675781 251.363281 237.328125 251.527344 236.933594 C 251.691406 236.539062 251.769531 236.128906 251.769531 235.703125 L 251.769531 193.925781 C 251.769531 193.5 251.691406 193.089844 251.527344 192.695312 C 251.363281 192.304688 251.132812 191.957031 250.832031 191.652344 C 250.527344 191.351562 250.179688 191.121094 249.789062 190.957031 C 249.394531 190.792969 248.984375 190.714844 248.558594 190.714844 Z M 177.859375 190.714844 " fill-opacity="1" fill-rule="nonzero"/></g><path fill="#0866ff" d="M 213.207031 238.917969 C 212.472656 238.917969 211.738281 238.882812 211.003906 238.808594 C 210.269531 238.738281 209.542969 238.628906 208.820312 238.484375 C 208.097656 238.339844 207.382812 238.164062 206.679688 237.949219 C 205.972656 237.734375 205.28125 237.488281 204.601562 237.203125 C 203.917969 236.921875 203.253906 236.609375 202.605469 236.261719 C 201.953125 235.914062 201.324219 235.535156 200.710938 235.125 C 200.097656 234.714844 199.507812 234.277344 198.9375 233.8125 C 198.367188 233.34375 197.824219 232.847656 197.300781 232.328125 C 196.78125 231.808594 196.285156 231.261719 195.820312 230.691406 C 195.351562 230.125 194.914062 229.53125 194.503906 228.917969 C 194.09375 228.308594 193.714844 227.675781 193.371094 227.027344 C 193.023438 226.375 192.707031 225.710938 192.425781 225.03125 C 192.144531 224.351562 191.894531 223.65625 191.683594 222.953125 C 191.46875 222.246094 191.289062 221.53125 191.144531 220.808594 C 191 220.085938 190.894531 219.359375 190.820312 218.625 C 190.75 217.894531 190.714844 217.160156 190.714844 216.421875 C 190.714844 215.683594 190.75 214.949219 190.820312 214.21875 C 190.894531 213.484375 191 212.753906 191.144531 212.035156 C 191.289062 211.3125 191.46875 210.597656 191.683594 209.890625 C 191.894531 209.1875 192.144531 208.492188 192.425781 207.8125 C 192.707031 207.132812 193.023438 206.46875 193.371094 205.816406 C 193.714844 205.167969 194.09375 204.535156 194.503906 203.925781 C 194.914062 203.3125 195.351562 202.71875 195.820312 202.152344 C 196.285156 201.582031 196.78125 201.035156 197.300781 200.515625 C 197.824219 199.996094 198.367188 199.5 198.9375 199.03125 C 199.507812 198.566406 200.097656 198.128906 200.710938 197.71875 C 201.324219 197.308594 201.953125 196.929688 202.605469 196.582031 C 203.253906 196.234375 203.917969 195.921875 204.601562 195.640625 C 205.28125 195.355469 205.972656 195.109375 206.679688 194.894531 C 207.382812 194.679688 208.097656 194.503906 208.820312 194.359375 C 209.542969 194.214844 210.269531 194.105469 211.003906 194.035156 C 211.738281 193.960938 212.472656 193.925781 213.207031 193.925781 C 213.945312 193.925781 214.679688 193.960938 215.414062 194.035156 C 216.144531 194.105469 216.875 194.214844 217.597656 194.359375 C 218.320312 194.503906 219.035156 194.679688 219.738281 194.894531 C 220.441406 195.109375 221.136719 195.355469 221.816406 195.640625 C 222.496094 195.921875 223.164062 196.234375 223.8125 196.582031 C 224.460938 196.929688 225.09375 197.308594 225.707031 197.71875 C 226.320312 198.128906 226.910156 198.566406 227.480469 199.03125 C 228.046875 199.5 228.59375 199.996094 229.113281 200.515625 C 229.636719 201.035156 230.128906 201.582031 230.597656 202.152344 C 231.066406 202.71875 231.503906 203.3125 231.914062 203.925781 C 232.320312 204.535156 232.699219 205.167969 233.046875 205.816406 C 233.394531 206.46875 233.710938 207.132812 233.992188 207.8125 C 234.273438 208.492188 234.519531 209.1875 234.734375 209.890625 C 234.949219 210.597656 235.128906 211.3125 235.269531 212.035156 C 235.414062 212.753906 235.523438 213.484375 235.59375 214.21875 C 235.667969 214.949219 235.703125 215.683594 235.703125 216.421875 C 235.703125 217.160156 235.667969 217.894531 235.59375 218.625 C 235.523438 219.359375 235.414062 220.085938 235.269531 220.808594 C 235.128906 221.53125 234.949219 222.246094 234.734375 222.953125 C 234.519531 223.65625 234.273438 224.351562 233.992188 225.03125 C 233.710938 225.710938 233.394531 226.375 233.046875 227.027344 C 232.699219 227.675781 232.320312 228.308594 231.914062 228.917969 C 231.503906 229.53125 231.066406 230.125 230.597656 230.691406 C 230.128906 231.261719 229.636719 231.808594 229.113281 232.328125 C 228.59375 232.847656 228.046875 233.34375 227.480469 233.8125 C 226.910156 234.277344 226.320312 234.714844 225.707031 235.125 C 225.09375 235.535156 224.460938 235.914062 223.8125 236.261719 C 223.164062 236.609375 222.496094 236.921875 221.816406 237.203125 C 221.136719 237.488281 220.441406 237.734375 219.738281 237.949219 C 219.035156 238.164062 218.320312 238.339844 217.597656 238.484375 C 216.875 238.628906 216.144531 238.738281 215.414062 238.808594 C 214.679688 238.882812 213.945312 238.917969 213.207031 238.917969 Z M 213.207031 200.355469 C 212.683594 200.355469 212.15625 200.378906 211.632812 200.429688 C 211.109375 200.484375 210.589844 200.558594 210.074219 200.664062 C 209.558594 200.765625 209.046875 200.894531 208.542969 201.046875 C 208.039062 201.199219 207.546875 201.375 207.058594 201.578125 C 206.574219 201.777344 206.097656 202.003906 205.632812 202.25 C 205.167969 202.5 204.71875 202.769531 204.28125 203.0625 C 203.84375 203.355469 203.421875 203.667969 203.015625 204 C 202.609375 204.335938 202.21875 204.6875 201.847656 205.058594 C 201.472656 205.433594 201.121094 205.820312 200.789062 206.226562 C 200.453125 206.636719 200.140625 207.058594 199.847656 207.496094 C 199.554688 207.933594 199.285156 208.382812 199.039062 208.847656 C 198.789062 209.3125 198.566406 209.785156 198.363281 210.273438 C 198.160156 210.757812 197.984375 211.253906 197.832031 211.757812 C 197.679688 212.261719 197.550781 212.769531 197.449219 213.289062 C 197.347656 213.804688 197.269531 214.324219 197.21875 214.847656 C 197.167969 215.371094 197.140625 215.894531 197.140625 216.421875 C 197.140625 216.949219 197.167969 217.472656 197.21875 217.996094 C 197.269531 218.519531 197.347656 219.039062 197.449219 219.554688 C 197.550781 220.074219 197.679688 220.582031 197.832031 221.085938 C 197.984375 221.589844 198.160156 222.085938 198.363281 222.570312 C 198.566406 223.058594 198.789062 223.53125 199.039062 223.996094 C 199.285156 224.460938 199.554688 224.910156 199.847656 225.347656 C 200.140625 225.785156 200.453125 226.207031 200.789062 226.617188 C 201.121094 227.023438 201.472656 227.410156 201.847656 227.785156 C 202.21875 228.15625 202.609375 228.507812 203.015625 228.84375 C 203.421875 229.175781 203.84375 229.488281 204.28125 229.78125 C 204.71875 230.074219 205.167969 230.34375 205.632812 230.59375 C 206.097656 230.839844 206.574219 231.066406 207.058594 231.265625 C 207.546875 231.46875 208.039062 231.644531 208.542969 231.796875 C 209.046875 231.949219 209.558594 232.078125 210.074219 232.179688 C 210.589844 232.285156 211.109375 232.359375 211.632812 232.414062 C 212.15625 232.464844 212.683594 232.488281 213.207031 232.488281 C 213.734375 232.488281 214.257812 232.464844 214.785156 232.414062 C 215.308594 232.359375 215.828125 232.285156 216.34375 232.179688 C 216.859375 232.078125 217.367188 231.949219 217.871094 231.796875 C 218.375 231.644531 218.871094 231.46875 219.355469 231.265625 C 219.84375 231.066406 220.320312 230.839844 220.78125 230.59375 C 221.246094 230.34375 221.699219 230.074219 222.136719 229.78125 C 222.574219 229.488281 222.996094 229.175781 223.402344 228.84375 C 223.808594 228.507812 224.199219 228.15625 224.570312 227.785156 C 224.941406 227.410156 225.296875 227.023438 225.628906 226.617188 C 225.960938 226.207031 226.277344 225.785156 226.566406 225.347656 C 226.859375 224.910156 227.132812 224.460938 227.378906 223.996094 C 227.628906 223.53125 227.851562 223.058594 228.054688 222.570312 C 228.253906 222.085938 228.429688 221.589844 228.585938 221.085938 C 228.738281 220.582031 228.863281 220.074219 228.96875 219.554688 C 229.070312 219.039062 229.148438 218.519531 229.199219 217.996094 C 229.25 217.472656 229.277344 216.949219 229.277344 216.421875 C 229.277344 215.894531 229.25 215.371094 229.199219 214.847656 C 229.148438 214.324219 229.070312 213.804688 228.96875 213.289062 C 228.863281 212.769531 228.738281 212.261719 228.585938 211.757812 C 228.429688 211.253906 228.253906 210.757812 228.054688 210.273438 C 227.851562 209.785156 227.628906 209.3125 227.378906 208.847656 C 227.132812 208.382812 226.859375 207.933594 226.566406 207.496094 C 226.277344 207.058594 225.960938 206.636719 225.628906 206.226562 C 225.296875 205.820312 224.941406 205.433594 224.570312 205.058594 C 224.199219 204.6875 223.808594 204.335938 223.402344 204 C 222.996094 203.667969 222.574219 203.355469 222.136719 203.0625 C 221.699219 202.769531 221.246094 202.5 220.78125 202.25 C 220.320312 202.003906 219.84375 201.777344 219.355469 201.578125 C 218.871094 201.375 218.375 201.199219 217.871094 201.046875 C 217.367188 200.894531 216.859375 200.765625 216.34375 200.664062 C 215.828125 200.558594 215.308594 200.484375 214.785156 200.429688 C 214.257812 200.378906 213.734375 200.355469 213.207031 200.355469 Z M 213.207031 200.355469 " fill-opacity="1" fill-rule="nonzero"/><path fill="#0866ff" d="M 213.207031 227.667969 C 212.574219 227.667969 211.949219 227.609375 211.328125 227.484375 C 210.707031 227.359375 210.105469 227.179688 209.519531 226.9375 C 208.933594 226.691406 208.378906 226.394531 207.851562 226.042969 C 207.324219 225.691406 206.839844 225.292969 206.390625 224.847656 C 205.945312 224.398438 205.542969 223.910156 205.191406 223.386719 C 204.839844 222.859375 204.542969 222.304688 204.300781 221.71875 C 204.058594 221.132812 203.875 220.53125 203.753906 219.910156 C 203.628906 219.289062 203.566406 218.660156 203.566406 218.027344 C 203.566406 217.601562 203.648438 217.191406 203.8125 216.800781 C 203.976562 216.40625 204.207031 216.058594 204.507812 215.757812 C 204.808594 215.453125 205.15625 215.222656 205.550781 215.058594 C 205.945312 214.898438 206.355469 214.816406 206.78125 214.816406 C 207.207031 214.816406 207.617188 214.898438 208.011719 215.058594 C 208.40625 215.222656 208.753906 215.453125 209.054688 215.757812 C 209.355469 216.058594 209.585938 216.40625 209.75 216.800781 C 209.914062 217.191406 209.996094 217.601562 209.996094 218.027344 C 209.996094 218.453125 210.078125 218.863281 210.238281 219.257812 C 210.402344 219.652344 210.632812 220 210.9375 220.300781 C 211.238281 220.601562 211.585938 220.835938 211.976562 220.996094 C 212.371094 221.160156 212.78125 221.242188 213.207031 221.242188 C 213.632812 221.242188 214.042969 221.160156 214.4375 220.996094 C 214.832031 220.835938 215.179688 220.601562 215.480469 220.300781 C 215.78125 220 216.015625 219.652344 216.175781 219.257812 C 216.339844 218.863281 216.421875 218.453125 216.421875 218.027344 C 216.421875 217.601562 216.503906 217.191406 216.667969 216.800781 C 216.828125 216.40625 217.0625 216.058594 217.363281 215.757812 C 217.664062 215.453125 218.011719 215.222656 218.40625 215.058594 C 218.800781 214.898438 219.210938 214.816406 219.636719 214.816406 C 220.0625 214.816406 220.472656 214.898438 220.867188 215.058594 C 221.257812 215.222656 221.605469 215.453125 221.90625 215.757812 C 222.210938 216.058594 222.441406 216.40625 222.605469 216.800781 C 222.765625 217.191406 222.847656 217.601562 222.847656 218.027344 C 222.847656 218.660156 222.789062 219.289062 222.664062 219.910156 C 222.539062 220.53125 222.359375 221.132812 222.113281 221.71875 C 221.871094 222.304688 221.574219 222.859375 221.222656 223.386719 C 220.871094 223.910156 220.472656 224.398438 220.023438 224.847656 C 219.578125 225.292969 219.089844 225.691406 218.5625 226.042969 C 218.039062 226.394531 217.484375 226.691406 216.898438 226.9375 C 216.3125 227.179688 215.710938 227.359375 215.089844 227.484375 C 214.46875 227.609375 213.839844 227.667969 213.207031 227.667969 Z M 213.207031 227.667969 " fill-opacity="1" fill-rule="nonzero"/><g clip-path="url(#86dfcc0368)"><path fill="#0866ff" d="M 161.4375 229.277344 C 160.488281 229.273438 159.695312 228.921875 159.058594 228.214844 L 148.488281 216.421875 L 126.441406 216.421875 C 125.808594 216.421875 125.179688 216.359375 124.558594 216.238281 C 123.9375 216.113281 123.335938 215.929688 122.75 215.6875 C 122.167969 215.445312 121.609375 215.148438 121.085938 214.796875 C 120.558594 214.445312 120.070312 214.046875 119.625 213.597656 C 119.175781 213.152344 118.777344 212.664062 118.425781 212.136719 C 118.074219 211.609375 117.777344 211.054688 117.535156 210.46875 C 117.292969 209.886719 117.109375 209.28125 116.984375 208.660156 C 116.863281 208.042969 116.800781 207.414062 116.800781 206.78125 L 116.800781 165.003906 C 116.800781 164.371094 116.863281 163.746094 116.984375 163.125 C 117.109375 162.503906 117.292969 161.898438 117.535156 161.316406 C 117.777344 160.730469 118.074219 160.175781 118.425781 159.648438 C 118.777344 159.121094 119.175781 158.636719 119.625 158.1875 C 120.070312 157.738281 120.558594 157.339844 121.085938 156.988281 C 121.609375 156.636719 122.167969 156.339844 122.75 156.097656 C 123.335938 155.855469 123.9375 155.671875 124.558594 155.546875 C 125.179688 155.425781 125.808594 155.363281 126.441406 155.363281 L 197.140625 155.363281 C 197.773438 155.363281 198.398438 155.425781 199.019531 155.546875 C 199.640625 155.671875 200.246094 155.855469 200.828125 156.097656 C 201.414062 156.339844 201.96875 156.636719 202.496094 156.988281 C 203.023438 157.339844 203.507812 157.738281 203.957031 158.1875 C 204.40625 158.636719 204.804688 159.121094 205.15625 159.648438 C 205.507812 160.175781 205.804688 160.730469 206.046875 161.316406 C 206.289062 161.898438 206.472656 162.503906 206.597656 163.125 C 206.71875 163.746094 206.78125 164.371094 206.78125 165.003906 L 206.78125 177.859375 C 206.78125 178.285156 206.699219 178.695312 206.535156 179.089844 C 206.375 179.480469 206.140625 179.828125 205.839844 180.132812 C 205.539062 180.433594 205.191406 180.664062 204.796875 180.828125 C 204.402344 180.992188 203.992188 181.070312 203.566406 181.070312 C 203.140625 181.070312 202.730469 180.992188 202.335938 180.828125 C 201.945312 180.664062 201.597656 180.433594 201.296875 180.132812 C 200.992188 179.828125 200.761719 179.480469 200.597656 179.089844 C 200.433594 178.695312 200.355469 178.285156 200.355469 177.859375 L 200.355469 165.003906 C 200.355469 164.578125 200.273438 164.167969 200.109375 163.773438 C 199.945312 163.378906 199.714844 163.035156 199.414062 162.730469 C 199.109375 162.429688 198.765625 162.199219 198.371094 162.035156 C 197.976562 161.871094 197.566406 161.789062 197.140625 161.789062 L 126.441406 161.789062 C 126.015625 161.789062 125.605469 161.871094 125.210938 162.035156 C 124.816406 162.199219 124.46875 162.429688 124.167969 162.730469 C 123.867188 163.035156 123.636719 163.378906 123.472656 163.773438 C 123.308594 164.167969 123.226562 164.578125 123.226562 165.003906 L 123.226562 206.78125 C 123.226562 207.207031 123.308594 207.617188 123.472656 208.011719 C 123.636719 208.40625 123.867188 208.753906 124.167969 209.054688 C 124.46875 209.355469 124.816406 209.585938 125.210938 209.75 C 125.605469 209.914062 126.015625 209.996094 126.441406 209.996094 L 149.933594 209.996094 C 150.894531 209.988281 151.699219 210.339844 152.34375 211.054688 L 163.847656 223.910156 C 164.136719 224.226562 164.351562 224.589844 164.492188 224.996094 C 164.636719 225.398438 164.695312 225.816406 164.671875 226.246094 C 164.648438 226.671875 164.542969 227.082031 164.355469 227.46875 C 164.167969 227.851562 163.910156 228.1875 163.589844 228.472656 C 162.976562 229.015625 162.257812 229.285156 161.4375 229.277344 Z M 161.4375 229.277344 " fill-opacity="1" fill-rule="nonzero"/></g><path fill="#0866ff" d="M 222.847656 136.082031 L 181.070312 136.082031 C 180.644531 136.082031 180.234375 136 179.84375 135.835938 C 179.449219 135.675781 179.101562 135.441406 178.800781 135.140625 C 178.5 134.839844 178.265625 134.492188 178.101562 134.097656 C 177.941406 133.703125 177.859375 133.292969 177.859375 132.867188 C 177.859375 132.441406 177.941406 132.03125 178.101562 131.636719 C 178.265625 131.246094 178.5 130.898438 178.800781 130.597656 C 179.101562 130.292969 179.449219 130.0625 179.84375 129.898438 C 180.234375 129.734375 180.644531 129.65625 181.070312 129.65625 L 222.847656 129.65625 C 223.273438 129.65625 223.683594 129.734375 224.078125 129.898438 C 224.472656 130.0625 224.820312 130.292969 225.121094 130.597656 C 225.421875 130.898438 225.65625 131.246094 225.816406 131.636719 C 225.980469 132.03125 226.0625 132.441406 226.0625 132.867188 C 226.0625 133.292969 225.980469 133.703125 225.816406 134.097656 C 225.65625 134.492188 225.421875 134.839844 225.121094 135.140625 C 224.820312 135.441406 224.472656 135.675781 224.078125 135.835938 C 223.683594 136 223.273438 136.082031 222.847656 136.082031 Z M 222.847656 136.082031 " fill-opacity="1" fill-rule="nonzero"/><path fill="#0866ff" d="M 206.78125 148.9375 L 181.070312 148.9375 C 180.644531 148.9375 180.234375 148.855469 179.84375 148.691406 C 179.449219 148.527344 179.101562 148.296875 178.800781 147.996094 C 178.5 147.695312 178.265625 147.347656 178.101562 146.953125 C 177.941406 146.558594 177.859375 146.148438 177.859375 145.722656 C 177.859375 145.296875 177.941406 144.886719 178.101562 144.492188 C 178.265625 144.097656 178.5 143.75 178.800781 143.449219 C 179.101562 143.148438 179.449219 142.917969 179.84375 142.753906 C 180.234375 142.589844 180.644531 142.507812 181.070312 142.507812 L 206.78125 142.507812 C 207.207031 142.507812 207.617188 142.589844 208.011719 142.753906 C 208.40625 142.917969 208.753906 143.148438 209.054688 143.449219 C 209.355469 143.75 209.585938 144.097656 209.75 144.492188 C 209.914062 144.886719 209.996094 145.296875 209.996094 145.722656 C 209.996094 146.148438 209.914062 146.558594 209.75 146.953125 C 209.585938 147.347656 209.355469 147.695312 209.054688 147.996094 C 208.753906 148.296875 208.40625 148.527344 208.011719 148.691406 C 207.617188 148.855469 207.207031 148.9375 206.78125 148.9375 Z M 206.78125 148.9375 " fill-opacity="1" fill-rule="nonzero"/><path fill="#0866ff" d="M 161.789062 208.964844 C 160.902344 208.972656 160.140625 208.660156 159.507812 208.035156 L 146.011719 194.570312 C 137.527344 186.085938 138.363281 177.539062 142.796875 173.199219 C 147.234375 168.859375 154.078125 168.21875 161.789062 174.453125 C 162.703125 173.621094 163.695312 172.894531 164.769531 172.28125 C 165.839844 171.667969 166.964844 171.175781 168.148438 170.808594 C 169.328125 170.441406 170.53125 170.207031 171.765625 170.109375 C 172.996094 170.007812 174.222656 170.039062 175.449219 170.210938 C 176.3125 170.382812 177.140625 170.65625 177.9375 171.03125 C 178.734375 171.410156 179.472656 171.878906 180.148438 172.441406 C 180.828125 173 181.429688 173.636719 181.949219 174.347656 C 182.46875 175.058594 182.894531 175.820312 183.226562 176.636719 C 183.382812 177.035156 183.460938 177.445312 183.453125 177.871094 C 183.449219 178.296875 183.359375 178.707031 183.191406 179.097656 C 183.023438 179.492188 182.785156 179.835938 182.480469 180.132812 C 182.171875 180.429688 181.824219 180.65625 181.425781 180.816406 C 181.03125 180.972656 180.617188 181.050781 180.191406 181.042969 C 179.765625 181.039062 179.355469 180.949219 178.964844 180.78125 C 178.570312 180.613281 178.226562 180.375 177.929688 180.070312 C 177.632812 179.761719 177.40625 179.414062 177.25 179.015625 C 176.976562 178.335938 176.554688 177.769531 175.980469 177.316406 C 175.40625 176.863281 174.757812 176.585938 174.035156 176.476562 C 173.082031 176.445312 172.136719 176.523438 171.199219 176.714844 C 170.265625 176.902344 169.363281 177.195312 168.496094 177.597656 C 167.628906 177.996094 166.816406 178.488281 166.066406 179.074219 C 165.3125 179.664062 164.636719 180.328125 164.039062 181.070312 C 163.738281 181.375 163.390625 181.609375 162.996094 181.777344 C 162.597656 181.941406 162.1875 182.023438 161.757812 182.023438 C 161.332031 182.023438 160.917969 181.941406 160.523438 181.777344 C 160.128906 181.609375 159.777344 181.375 159.476562 181.070312 C 154.367188 175.960938 149.449219 175.542969 147.234375 177.859375 C 145.015625 180.171875 145.433594 184.992188 150.445312 190.101562 L 164.039062 203.566406 C 164.34375 203.871094 164.578125 204.21875 164.742188 204.613281 C 164.910156 205.007812 164.992188 205.421875 164.992188 205.847656 C 164.992188 206.277344 164.910156 206.691406 164.742188 207.085938 C 164.578125 207.480469 164.34375 207.828125 164.039062 208.128906 C 163.402344 208.710938 162.652344 208.988281 161.789062 208.964844 Z M 161.789062 208.964844 " fill-opacity="1" fill-rule="nonzero"/></svg>