<svg xmlns="http://www.w3.org/2000/svg" xmlns:xlink="http://www.w3.org/1999/xlink" zoomAndPan="magnify" preserveAspectRatio="xMidYMid meet" version="1.0" viewBox="28.6 116.8 312.38 141.75"><defs><g/><clipPath id="bc760186ab"><path d="M 73 116.800781 L 164 116.800781 L 164 182 L 73 182 Z M 73 116.800781 " clip-rule="nonzero"/></clipPath><clipPath id="f3533c19e9"><path d="M 80 184 L 170 184 L 170 258.550781 L 80 258.550781 Z M 80 184 " clip-rule="nonzero"/></clipPath><clipPath id="70ec3a26d6"><path d="M 28.601562 155 L 119 155 L 119 230 L 28.601562 230 Z M 28.601562 155 " clip-rule="nonzero"/></clipPath></defs><g clip-path="url(#bc760186ab)"><path fill="#0866ff" d="M 126.839844 181.070312 C 126.019531 181.078125 125.300781 180.8125 124.6875 180.269531 C 124.367188 179.984375 124.109375 179.648438 123.921875 179.261719 C 123.734375 178.878906 123.628906 178.46875 123.605469 178.039062 C 123.582031 177.613281 123.640625 177.195312 123.785156 176.789062 C 123.925781 176.386719 124.140625 176.023438 124.429688 175.707031 L 127.289062 172.492188 C 127.933594 171.777344 128.738281 171.425781 129.699219 171.429688 L 153.929688 171.429688 C 154.355469 171.429688 154.765625 171.351562 155.160156 171.1875 C 155.554688 171.023438 155.902344 170.792969 156.203125 170.488281 C 156.503906 170.1875 156.738281 169.839844 156.898438 169.449219 C 157.0625 169.054688 157.144531 168.644531 157.144531 168.21875 L 157.144531 126.441406 C 157.144531 126.015625 157.0625 125.605469 156.898438 125.210938 C 156.738281 124.816406 156.503906 124.46875 156.203125 124.167969 C 155.902344 123.867188 155.554688 123.636719 155.160156 123.472656 C 154.765625 123.308594 154.355469 123.226562 153.929688 123.226562 L 83.230469 123.226562 C 82.804688 123.226562 82.394531 123.308594 82.003906 123.472656 C 81.609375 123.636719 81.261719 123.867188 80.960938 124.167969 C 80.660156 124.46875 80.425781 124.816406 80.261719 125.210938 C 80.101562 125.605469 80.019531 126.015625 80.019531 126.441406 L 80.019531 148.9375 C 80.019531 149.363281 79.9375 149.773438 79.773438 150.167969 C 79.609375 150.558594 79.378906 150.90625 79.078125 151.207031 C 78.777344 151.511719 78.429688 151.742188 78.035156 151.90625 C 77.640625 152.066406 77.230469 152.148438 76.804688 152.148438 C 76.378906 152.148438 75.96875 152.066406 75.574219 151.90625 C 75.179688 151.742188 74.832031 151.511719 74.53125 151.207031 C 74.230469 150.90625 74 150.558594 73.835938 150.167969 C 73.671875 149.773438 73.589844 149.363281 73.589844 148.9375 L 73.589844 126.441406 C 73.589844 125.808594 73.652344 125.179688 73.777344 124.558594 C 73.898438 123.9375 74.082031 123.335938 74.324219 122.75 C 74.566406 122.167969 74.863281 121.609375 75.214844 121.085938 C 75.566406 120.558594 75.96875 120.070312 76.414062 119.625 C 76.863281 119.175781 77.347656 118.777344 77.875 118.425781 C 78.402344 118.074219 78.957031 117.777344 79.542969 117.535156 C 80.128906 117.292969 80.730469 117.109375 81.351562 116.984375 C 81.972656 116.863281 82.597656 116.800781 83.230469 116.800781 L 153.929688 116.800781 C 154.5625 116.800781 155.191406 116.863281 155.8125 116.984375 C 156.433594 117.109375 157.035156 117.292969 157.621094 117.535156 C 158.207031 117.777344 158.761719 118.074219 159.289062 118.425781 C 159.8125 118.777344 160.300781 119.175781 160.75 119.625 C 161.195312 120.070312 161.59375 120.558594 161.945312 121.085938 C 162.300781 121.609375 162.597656 122.167969 162.839844 122.75 C 163.082031 123.335938 163.261719 123.9375 163.386719 124.558594 C 163.511719 125.179688 163.570312 125.808594 163.570312 126.441406 L 163.570312 168.21875 C 163.570312 168.851562 163.511719 169.476562 163.386719 170.097656 C 163.261719 170.71875 163.082031 171.324219 162.839844 171.90625 C 162.597656 172.492188 162.300781 173.046875 161.945312 173.574219 C 161.59375 174.101562 161.195312 174.585938 160.75 175.035156 C 160.300781 175.484375 159.8125 175.882812 159.289062 176.234375 C 158.761719 176.585938 158.207031 176.882812 157.621094 177.125 C 157.035156 177.367188 156.433594 177.550781 155.8125 177.671875 C 155.191406 177.796875 154.5625 177.859375 153.929688 177.859375 L 131.148438 177.859375 L 129.21875 180.011719 C 128.582031 180.714844 127.789062 181.070312 126.839844 181.070312 Z M 126.839844 181.070312 " fill-opacity="1" fill-rule="nonzero"/></g><g clip-path="url(#f3533c19e9)"><path fill="#0866ff" d="M 124.65625 258.199219 C 123.691406 258.207031 122.890625 257.851562 122.246094 257.136719 L 111.738281 245.34375 L 89.660156 245.34375 C 89.027344 245.34375 88.398438 245.28125 87.777344 245.160156 C 87.15625 245.035156 86.554688 244.851562 85.96875 244.609375 C 85.386719 244.367188 84.828125 244.070312 84.304688 243.71875 C 83.777344 243.367188 83.289062 242.96875 82.84375 242.519531 C 82.394531 242.074219 81.996094 241.585938 81.644531 241.058594 C 81.292969 240.535156 80.996094 239.976562 80.753906 239.394531 C 80.511719 238.808594 80.328125 238.207031 80.203125 237.585938 C 80.082031 236.964844 80.019531 236.335938 80.019531 235.703125 L 80.019531 193.925781 C 80.019531 193.292969 80.082031 192.667969 80.203125 192.046875 C 80.328125 191.425781 80.511719 190.820312 80.753906 190.238281 C 80.996094 189.652344 81.292969 189.097656 81.644531 188.570312 C 81.996094 188.042969 82.394531 187.558594 82.84375 187.109375 C 83.289062 186.660156 83.777344 186.261719 84.304688 185.910156 C 84.828125 185.558594 85.386719 185.261719 85.96875 185.019531 C 86.554688 184.777344 87.15625 184.59375 87.777344 184.472656 C 88.398438 184.347656 89.027344 184.285156 89.660156 184.285156 L 160.359375 184.285156 C 160.992188 184.285156 161.617188 184.347656 162.238281 184.472656 C 162.859375 184.59375 163.464844 184.777344 164.046875 185.019531 C 164.632812 185.261719 165.1875 185.558594 165.714844 185.910156 C 166.242188 186.261719 166.726562 186.660156 167.175781 187.109375 C 167.625 187.558594 168.023438 188.042969 168.375 188.570312 C 168.726562 189.097656 169.023438 189.652344 169.265625 190.238281 C 169.507812 190.820312 169.691406 191.425781 169.8125 192.046875 C 169.9375 192.667969 170 193.292969 170 193.925781 L 170 235.703125 C 170 236.335938 169.9375 236.964844 169.8125 237.585938 C 169.691406 238.207031 169.507812 238.808594 169.265625 239.394531 C 169.023438 239.976562 168.726562 240.535156 168.375 241.058594 C 168.023438 241.585938 167.625 242.074219 167.175781 242.519531 C 166.726562 242.96875 166.242188 243.367188 165.714844 243.71875 C 165.1875 244.070312 164.632812 244.367188 164.046875 244.609375 C 163.464844 244.851562 162.859375 245.035156 162.238281 245.160156 C 161.617188 245.28125 160.992188 245.34375 160.359375 245.34375 L 137.574219 245.34375 L 127.035156 257.136719 C 126.398438 257.84375 125.605469 258.195312 124.65625 258.199219 Z M 89.660156 190.714844 C 89.234375 190.714844 88.824219 190.792969 88.429688 190.957031 C 88.035156 191.121094 87.6875 191.351562 87.386719 191.652344 C 87.085938 191.957031 86.851562 192.304688 86.691406 192.695312 C 86.527344 193.089844 86.445312 193.5 86.445312 193.925781 L 86.445312 235.703125 C 86.445312 236.128906 86.527344 236.539062 86.691406 236.933594 C 86.851562 237.328125 87.085938 237.675781 87.386719 237.976562 C 87.6875 238.277344 88.035156 238.507812 88.429688 238.671875 C 88.824219 238.835938 89.234375 238.917969 89.660156 238.917969 L 113.152344 238.917969 C 114.113281 238.910156 114.917969 239.261719 115.5625 239.976562 L 124.65625 250.164062 L 133.71875 239.976562 C 134.363281 239.261719 135.164062 238.910156 136.128906 238.917969 L 160.359375 238.917969 C 160.785156 238.917969 161.195312 238.835938 161.589844 238.671875 C 161.980469 238.507812 162.328125 238.277344 162.628906 237.976562 C 162.933594 237.675781 163.164062 237.328125 163.328125 236.933594 C 163.492188 236.539062 163.570312 236.128906 163.570312 235.703125 L 163.570312 193.925781 C 163.570312 193.5 163.492188 193.089844 163.328125 192.695312 C 163.164062 192.304688 162.933594 191.957031 162.628906 191.652344 C 162.328125 191.351562 161.980469 191.121094 161.589844 190.957031 C 161.195312 190.792969 160.785156 190.714844 160.359375 190.714844 Z M 89.660156 190.714844 " fill-opacity="1" fill-rule="nonzero"/></g><path fill="#0866ff" d="M 125.007812 238.917969 C 124.273438 238.917969 123.535156 238.882812 122.804688 238.808594 C 122.070312 238.738281 121.34375 238.628906 120.621094 238.484375 C 119.898438 238.339844 119.183594 238.164062 118.480469 237.949219 C 117.773438 237.734375 117.082031 237.488281 116.398438 237.203125 C 115.71875 236.921875 115.054688 236.609375 114.40625 236.261719 C 113.753906 235.914062 113.125 235.535156 112.511719 235.125 C 111.898438 234.714844 111.308594 234.277344 110.738281 233.8125 C 110.167969 233.34375 109.625 232.847656 109.101562 232.328125 C 108.582031 231.808594 108.085938 231.261719 107.621094 230.691406 C 107.152344 230.125 106.714844 229.53125 106.304688 228.917969 C 105.894531 228.308594 105.515625 227.675781 105.167969 227.027344 C 104.824219 226.375 104.507812 225.710938 104.226562 225.03125 C 103.945312 224.351562 103.695312 223.65625 103.480469 222.953125 C 103.269531 222.246094 103.089844 221.53125 102.945312 220.808594 C 102.800781 220.085938 102.695312 219.359375 102.621094 218.625 C 102.550781 217.894531 102.511719 217.160156 102.511719 216.421875 C 102.511719 215.683594 102.550781 214.949219 102.621094 214.21875 C 102.695312 213.484375 102.800781 212.753906 102.945312 212.035156 C 103.089844 211.3125 103.269531 210.597656 103.480469 209.890625 C 103.695312 209.1875 103.945312 208.492188 104.226562 207.8125 C 104.507812 207.132812 104.824219 206.46875 105.167969 205.816406 C 105.515625 205.167969 105.894531 204.535156 106.304688 203.925781 C 106.714844 203.3125 107.152344 202.71875 107.621094 202.152344 C 108.085938 201.582031 108.582031 201.035156 109.101562 200.515625 C 109.625 199.996094 110.167969 199.5 110.738281 199.03125 C 111.308594 198.566406 111.898438 198.128906 112.511719 197.71875 C 113.125 197.308594 113.753906 196.929688 114.40625 196.582031 C 115.054688 196.234375 115.71875 195.921875 116.398438 195.640625 C 117.082031 195.355469 117.773438 195.109375 118.480469 194.894531 C 119.183594 194.679688 119.898438 194.503906 120.621094 194.359375 C 121.34375 194.214844 122.070312 194.105469 122.804688 194.035156 C 123.535156 193.960938 124.273438 193.925781 125.007812 193.925781 C 125.746094 193.925781 126.480469 193.960938 127.214844 194.035156 C 127.945312 194.105469 128.675781 194.214844 129.398438 194.359375 C 130.121094 194.503906 130.832031 194.679688 131.539062 194.894531 C 132.242188 195.109375 132.9375 195.355469 133.617188 195.640625 C 134.296875 195.921875 134.964844 196.234375 135.613281 196.582031 C 136.261719 196.929688 136.894531 197.308594 137.507812 197.71875 C 138.117188 198.128906 138.710938 198.566406 139.28125 199.03125 C 139.847656 199.5 140.394531 199.996094 140.914062 200.515625 C 141.4375 201.035156 141.929688 201.582031 142.398438 202.152344 C 142.863281 202.71875 143.304688 203.3125 143.710938 203.925781 C 144.121094 204.535156 144.5 205.167969 144.847656 205.816406 C 145.195312 206.46875 145.507812 207.132812 145.792969 207.8125 C 146.074219 208.492188 146.320312 209.1875 146.535156 209.890625 C 146.75 210.597656 146.929688 211.3125 147.070312 212.035156 C 147.214844 212.753906 147.324219 213.484375 147.394531 214.21875 C 147.46875 214.949219 147.503906 215.683594 147.503906 216.421875 C 147.503906 217.160156 147.46875 217.894531 147.394531 218.625 C 147.324219 219.359375 147.214844 220.085938 147.070312 220.808594 C 146.929688 221.53125 146.75 222.246094 146.535156 222.953125 C 146.320312 223.65625 146.074219 224.351562 145.792969 225.03125 C 145.507812 225.710938 145.195312 226.375 144.847656 227.027344 C 144.5 227.675781 144.121094 228.308594 143.710938 228.917969 C 143.304688 229.53125 142.863281 230.125 142.398438 230.691406 C 141.929688 231.261719 141.4375 231.808594 140.914062 232.328125 C 140.394531 232.847656 139.847656 233.34375 139.28125 233.8125 C 138.710938 234.277344 138.117188 234.714844 137.507812 235.125 C 136.894531 235.535156 136.261719 235.914062 135.613281 236.261719 C 134.964844 236.609375 134.296875 236.921875 133.617188 237.203125 C 132.9375 237.488281 132.242188 237.734375 131.539062 237.949219 C 130.832031 238.164062 130.121094 238.339844 129.398438 238.484375 C 128.675781 238.628906 127.945312 238.738281 127.214844 238.808594 C 126.480469 238.882812 125.746094 238.917969 125.007812 238.917969 Z M 125.007812 200.355469 C 124.484375 200.355469 123.957031 200.378906 123.433594 200.429688 C 122.910156 200.484375 122.390625 200.558594 121.875 200.664062 C 121.359375 200.765625 120.847656 200.894531 120.34375 201.046875 C 119.839844 201.199219 119.347656 201.375 118.859375 201.578125 C 118.375 201.777344 117.898438 202.003906 117.433594 202.25 C 116.96875 202.5 116.519531 202.769531 116.082031 203.0625 C 115.644531 203.355469 115.222656 203.667969 114.816406 204 C 114.410156 204.335938 114.019531 204.6875 113.648438 205.058594 C 113.273438 205.433594 112.921875 205.820312 112.589844 206.226562 C 112.253906 206.636719 111.941406 207.058594 111.648438 207.496094 C 111.355469 207.933594 111.085938 208.382812 110.839844 208.847656 C 110.589844 209.3125 110.367188 209.785156 110.164062 210.273438 C 109.960938 210.757812 109.785156 211.253906 109.632812 211.757812 C 109.480469 212.261719 109.351562 212.769531 109.25 213.289062 C 109.148438 213.804688 109.070312 214.324219 109.019531 214.847656 C 108.964844 215.371094 108.941406 215.894531 108.941406 216.421875 C 108.941406 216.949219 108.964844 217.472656 109.019531 217.996094 C 109.070312 218.519531 109.148438 219.039062 109.25 219.554688 C 109.351562 220.074219 109.480469 220.582031 109.632812 221.085938 C 109.785156 221.589844 109.960938 222.085938 110.164062 222.570312 C 110.367188 223.058594 110.589844 223.53125 110.839844 223.996094 C 111.085938 224.460938 111.355469 224.910156 111.648438 225.347656 C 111.941406 225.785156 112.253906 226.207031 112.589844 226.617188 C 112.921875 227.023438 113.273438 227.410156 113.648438 227.785156 C 114.019531 228.15625 114.410156 228.507812 114.816406 228.84375 C 115.222656 229.175781 115.644531 229.488281 116.082031 229.78125 C 116.519531 230.074219 116.96875 230.34375 117.433594 230.59375 C 117.898438 230.839844 118.375 231.066406 118.859375 231.265625 C 119.347656 231.46875 119.839844 231.644531 120.34375 231.796875 C 120.847656 231.949219 121.359375 232.078125 121.875 232.179688 C 122.390625 232.285156 122.910156 232.359375 123.433594 232.414062 C 123.957031 232.464844 124.484375 232.488281 125.007812 232.488281 C 125.535156 232.488281 126.058594 232.464844 126.582031 232.414062 C 127.109375 232.359375 127.628906 232.285156 128.144531 232.179688 C 128.660156 232.078125 129.167969 231.949219 129.671875 231.796875 C 130.175781 231.644531 130.671875 231.46875 131.15625 231.265625 C 131.644531 231.066406 132.117188 230.839844 132.582031 230.59375 C 133.046875 230.34375 133.5 230.074219 133.9375 229.78125 C 134.375 229.488281 134.796875 229.175781 135.203125 228.84375 C 135.609375 228.507812 136 228.15625 136.371094 227.785156 C 136.742188 227.410156 137.09375 227.023438 137.429688 226.617188 C 137.761719 226.207031 138.078125 225.785156 138.367188 225.347656 C 138.660156 224.910156 138.929688 224.460938 139.179688 223.996094 C 139.425781 223.53125 139.652344 223.058594 139.855469 222.570312 C 140.054688 222.085938 140.230469 221.589844 140.386719 221.085938 C 140.539062 220.582031 140.664062 220.074219 140.769531 219.554688 C 140.871094 219.039062 140.949219 218.519531 141 217.996094 C 141.050781 217.472656 141.078125 216.949219 141.078125 216.421875 C 141.078125 215.894531 141.050781 215.371094 141 214.847656 C 140.949219 214.324219 140.871094 213.804688 140.769531 213.289062 C 140.664062 212.769531 140.539062 212.261719 140.386719 211.757812 C 140.230469 211.253906 140.054688 210.757812 139.855469 210.273438 C 139.652344 209.785156 139.425781 209.3125 139.179688 208.847656 C 138.929688 208.382812 138.660156 207.933594 138.367188 207.496094 C 138.078125 207.058594 137.761719 206.636719 137.429688 206.226562 C 137.09375 205.820312 136.742188 205.433594 136.371094 205.058594 C 136 204.6875 135.609375 204.335938 135.203125 204 C 134.796875 203.667969 134.375 203.355469 133.9375 203.0625 C 133.5 202.769531 133.046875 202.5 132.582031 202.25 C 132.117188 202.003906 131.644531 201.777344 131.15625 201.578125 C 130.671875 201.375 130.175781 201.199219 129.671875 201.046875 C 129.167969 200.894531 128.660156 200.765625 128.144531 200.664062 C 127.628906 200.558594 127.109375 200.484375 126.582031 200.429688 C 126.058594 200.378906 125.535156 200.355469 125.007812 200.355469 Z M 125.007812 200.355469 " fill-opacity="1" fill-rule="nonzero"/><path fill="#0866ff" d="M 125.007812 227.667969 C 124.375 227.667969 123.75 227.609375 123.128906 227.484375 C 122.507812 227.359375 121.902344 227.179688 121.320312 226.9375 C 120.734375 226.691406 120.179688 226.394531 119.652344 226.042969 C 119.125 225.691406 118.640625 225.292969 118.191406 224.847656 C 117.742188 224.398438 117.34375 223.910156 116.992188 223.386719 C 116.640625 222.859375 116.34375 222.304688 116.101562 221.71875 C 115.859375 221.132812 115.675781 220.53125 115.554688 219.910156 C 115.429688 219.289062 115.367188 218.660156 115.367188 218.027344 C 115.367188 217.601562 115.449219 217.191406 115.613281 216.800781 C 115.777344 216.40625 116.007812 216.058594 116.308594 215.757812 C 116.609375 215.453125 116.957031 215.222656 117.351562 215.058594 C 117.746094 214.898438 118.15625 214.816406 118.582031 214.816406 C 119.007812 214.816406 119.417969 214.898438 119.8125 215.058594 C 120.207031 215.222656 120.550781 215.453125 120.855469 215.757812 C 121.15625 216.058594 121.386719 216.40625 121.550781 216.800781 C 121.714844 217.191406 121.796875 217.601562 121.796875 218.027344 C 121.796875 218.453125 121.875 218.863281 122.039062 219.257812 C 122.203125 219.652344 122.433594 220 122.738281 220.300781 C 123.039062 220.601562 123.386719 220.835938 123.777344 220.996094 C 124.171875 221.160156 124.582031 221.242188 125.007812 221.242188 C 125.433594 221.242188 125.84375 221.160156 126.238281 220.996094 C 126.632812 220.835938 126.980469 220.601562 127.28125 220.300781 C 127.582031 220 127.816406 219.652344 127.976562 219.257812 C 128.140625 218.863281 128.222656 218.453125 128.222656 218.027344 C 128.222656 217.601562 128.304688 217.191406 128.46875 216.800781 C 128.628906 216.40625 128.863281 216.058594 129.164062 215.757812 C 129.464844 215.453125 129.8125 215.222656 130.207031 215.058594 C 130.601562 214.898438 131.011719 214.816406 131.4375 214.816406 C 131.863281 214.816406 132.273438 214.898438 132.664062 215.058594 C 133.058594 215.222656 133.40625 215.453125 133.707031 215.757812 C 134.007812 216.058594 134.242188 216.40625 134.40625 216.800781 C 134.566406 217.191406 134.648438 217.601562 134.648438 218.027344 C 134.648438 218.660156 134.585938 219.289062 134.464844 219.910156 C 134.339844 220.53125 134.15625 221.132812 133.914062 221.71875 C 133.671875 222.304688 133.375 222.859375 133.023438 223.386719 C 132.671875 223.910156 132.273438 224.398438 131.824219 224.847656 C 131.378906 225.292969 130.890625 225.691406 130.363281 226.042969 C 129.839844 226.394531 129.28125 226.691406 128.699219 226.9375 C 128.113281 227.179688 127.511719 227.359375 126.890625 227.484375 C 126.269531 227.609375 125.640625 227.667969 125.007812 227.667969 Z M 125.007812 227.667969 " fill-opacity="1" fill-rule="nonzero"/><g clip-path="url(#70ec3a26d6)"><path fill="#0866ff" d="M 73.238281 229.277344 C 72.289062 229.273438 71.496094 228.921875 70.859375 228.214844 L 60.285156 216.421875 L 38.242188 216.421875 C 37.609375 216.421875 36.980469 216.359375 36.359375 216.238281 C 35.738281 216.113281 35.136719 215.929688 34.550781 215.6875 C 33.96875 215.445312 33.410156 215.148438 32.886719 214.796875 C 32.359375 214.445312 31.871094 214.046875 31.425781 213.597656 C 30.976562 213.152344 30.578125 212.664062 30.226562 212.136719 C 29.875 211.609375 29.578125 211.054688 29.335938 210.46875 C 29.09375 209.886719 28.910156 209.28125 28.785156 208.660156 C 28.664062 208.042969 28.601562 207.414062 28.601562 206.78125 L 28.601562 165.003906 C 28.601562 164.371094 28.664062 163.746094 28.785156 163.125 C 28.910156 162.503906 29.09375 161.898438 29.335938 161.316406 C 29.578125 160.730469 29.875 160.175781 30.226562 159.648438 C 30.578125 159.121094 30.976562 158.636719 31.425781 158.1875 C 31.871094 157.738281 32.359375 157.339844 32.886719 156.988281 C 33.410156 156.636719 33.96875 156.339844 34.550781 156.097656 C 35.136719 155.855469 35.738281 155.671875 36.359375 155.546875 C 36.980469 155.425781 37.609375 155.363281 38.242188 155.363281 L 108.941406 155.363281 C 109.574219 155.363281 110.199219 155.425781 110.820312 155.546875 C 111.441406 155.671875 112.046875 155.855469 112.628906 156.097656 C 113.214844 156.339844 113.769531 156.636719 114.296875 156.988281 C 114.824219 157.339844 115.308594 157.738281 115.757812 158.1875 C 116.207031 158.636719 116.605469 159.121094 116.957031 159.648438 C 117.308594 160.175781 117.605469 160.730469 117.847656 161.316406 C 118.089844 161.898438 118.273438 162.503906 118.394531 163.125 C 118.519531 163.746094 118.582031 164.371094 118.582031 165.003906 L 118.582031 177.859375 C 118.582031 178.285156 118.5 178.695312 118.335938 179.089844 C 118.175781 179.480469 117.941406 179.828125 117.640625 180.132812 C 117.339844 180.433594 116.992188 180.664062 116.597656 180.828125 C 116.203125 180.992188 115.792969 181.070312 115.367188 181.070312 C 114.941406 181.070312 114.53125 180.992188 114.136719 180.828125 C 113.746094 180.664062 113.398438 180.433594 113.09375 180.132812 C 112.792969 179.828125 112.5625 179.480469 112.398438 179.089844 C 112.234375 178.695312 112.15625 178.285156 112.15625 177.859375 L 112.15625 165.003906 C 112.15625 164.578125 112.074219 164.167969 111.910156 163.773438 C 111.746094 163.378906 111.515625 163.035156 111.214844 162.730469 C 110.910156 162.429688 110.5625 162.199219 110.171875 162.035156 C 109.777344 161.871094 109.367188 161.789062 108.941406 161.789062 L 38.242188 161.789062 C 37.816406 161.789062 37.40625 161.871094 37.011719 162.035156 C 36.617188 162.199219 36.269531 162.429688 35.96875 162.730469 C 35.667969 163.035156 35.4375 163.378906 35.273438 163.773438 C 35.109375 164.167969 35.027344 164.578125 35.027344 165.003906 L 35.027344 206.78125 C 35.027344 207.207031 35.109375 207.617188 35.273438 208.011719 C 35.4375 208.40625 35.667969 208.753906 35.96875 209.054688 C 36.269531 209.355469 36.617188 209.585938 37.011719 209.75 C 37.40625 209.914062 37.816406 209.996094 38.242188 209.996094 L 61.734375 209.996094 C 62.695312 209.988281 63.5 210.339844 64.144531 211.054688 L 75.648438 223.910156 C 75.9375 224.226562 76.152344 224.589844 76.292969 224.996094 C 76.4375 225.398438 76.496094 225.816406 76.472656 226.246094 C 76.449219 226.671875 76.34375 227.082031 76.15625 227.46875 C 75.96875 227.851562 75.710938 228.1875 75.390625 228.472656 C 74.777344 229.015625 74.058594 229.285156 73.238281 229.277344 Z M 73.238281 229.277344 " fill-opacity="1" fill-rule="nonzero"/></g><path fill="#0866ff" d="M 134.648438 136.082031 L 92.871094 136.082031 C 92.445312 136.082031 92.035156 136 91.644531 135.835938 C 91.25 135.675781 90.902344 135.441406 90.601562 135.140625 C 90.300781 134.839844 90.066406 134.492188 89.902344 134.097656 C 89.742188 133.703125 89.660156 133.292969 89.660156 132.867188 C 89.660156 132.441406 89.742188 132.03125 89.902344 131.636719 C 90.066406 131.246094 90.300781 130.898438 90.601562 130.597656 C 90.902344 130.292969 91.25 130.0625 91.644531 129.898438 C 92.035156 129.734375 92.445312 129.65625 92.871094 129.65625 L 134.648438 129.65625 C 135.074219 129.65625 135.484375 129.734375 135.878906 129.898438 C 136.273438 130.0625 136.621094 130.292969 136.921875 130.597656 C 137.222656 130.898438 137.457031 131.246094 137.617188 131.636719 C 137.78125 132.03125 137.863281 132.441406 137.863281 132.867188 C 137.863281 133.292969 137.78125 133.703125 137.617188 134.097656 C 137.457031 134.492188 137.222656 134.839844 136.921875 135.140625 C 136.621094 135.441406 136.273438 135.675781 135.878906 135.835938 C 135.484375 136 135.074219 136.082031 134.648438 136.082031 Z M 134.648438 136.082031 " fill-opacity="1" fill-rule="nonzero"/><path fill="#0866ff" d="M 118.582031 148.9375 L 92.871094 148.9375 C 92.445312 148.9375 92.035156 148.855469 91.644531 148.691406 C 91.25 148.527344 90.902344 148.296875 90.601562 147.996094 C 90.300781 147.695312 90.066406 147.347656 89.902344 146.953125 C 89.742188 146.558594 89.660156 146.148438 89.660156 145.722656 C 89.660156 145.296875 89.742188 144.886719 89.902344 144.492188 C 90.066406 144.097656 90.300781 143.75 90.601562 143.449219 C 90.902344 143.148438 91.25 142.917969 91.644531 142.753906 C 92.035156 142.589844 92.445312 142.507812 92.871094 142.507812 L 118.582031 142.507812 C 119.007812 142.507812 119.417969 142.589844 119.8125 142.753906 C 120.207031 142.917969 120.550781 143.148438 120.855469 143.449219 C 121.15625 143.75 121.386719 144.097656 121.550781 144.492188 C 121.714844 144.886719 121.796875 145.296875 121.796875 145.722656 C 121.796875 146.148438 121.714844 146.558594 121.550781 146.953125 C 121.386719 147.347656 121.15625 147.695312 120.855469 147.996094 C 120.550781 148.296875 120.207031 148.527344 119.8125 148.691406 C 119.417969 148.855469 119.007812 148.9375 118.582031 148.9375 Z M 118.582031 148.9375 " fill-opacity="1" fill-rule="nonzero"/><path fill="#0866ff" d="M 73.589844 208.964844 C 72.703125 208.972656 71.941406 208.660156 71.308594 208.035156 L 57.8125 194.570312 C 49.328125 186.085938 50.164062 177.539062 54.597656 173.199219 C 59.035156 168.859375 65.878906 168.21875 73.589844 174.453125 C 74.503906 173.621094 75.496094 172.894531 76.570312 172.28125 C 77.640625 171.667969 78.765625 171.175781 79.949219 170.808594 C 81.128906 170.441406 82.332031 170.207031 83.566406 170.109375 C 84.796875 170.007812 86.023438 170.039062 87.25 170.210938 C 88.113281 170.382812 88.941406 170.65625 89.738281 171.03125 C 90.535156 171.410156 91.273438 171.878906 91.949219 172.441406 C 92.628906 173 93.230469 173.636719 93.75 174.347656 C 94.269531 175.058594 94.695312 175.820312 95.027344 176.636719 C 95.183594 177.035156 95.261719 177.445312 95.253906 177.871094 C 95.25 178.296875 95.160156 178.707031 94.992188 179.097656 C 94.824219 179.492188 94.585938 179.835938 94.28125 180.132812 C 93.972656 180.429688 93.621094 180.65625 93.226562 180.816406 C 92.828125 180.972656 92.417969 181.050781 91.992188 181.042969 C 91.566406 181.039062 91.15625 180.949219 90.765625 180.78125 C 90.371094 180.613281 90.027344 180.375 89.730469 180.070312 C 89.433594 179.761719 89.207031 179.414062 89.046875 179.015625 C 88.777344 178.335938 88.355469 177.769531 87.78125 177.316406 C 87.207031 176.863281 86.558594 176.585938 85.835938 176.476562 C 84.882812 176.445312 83.9375 176.523438 83 176.714844 C 82.066406 176.902344 81.164062 177.195312 80.296875 177.597656 C 79.429688 177.996094 78.617188 178.488281 77.867188 179.074219 C 77.113281 179.664062 76.4375 180.328125 75.839844 181.070312 C 75.539062 181.375 75.191406 181.609375 74.792969 181.777344 C 74.398438 181.941406 73.988281 182.023438 73.558594 182.023438 C 73.128906 182.023438 72.71875 181.941406 72.324219 181.777344 C 71.925781 181.609375 71.578125 181.375 71.277344 181.070312 C 66.167969 175.960938 61.25 175.542969 59.035156 177.859375 C 56.816406 180.171875 57.234375 184.992188 62.246094 190.101562 L 75.839844 203.566406 C 76.144531 203.871094 76.378906 204.21875 76.542969 204.613281 C 76.707031 205.007812 76.792969 205.421875 76.792969 205.847656 C 76.792969 206.277344 76.707031 206.691406 76.542969 207.085938 C 76.378906 207.480469 76.144531 207.828125 75.839844 208.128906 C 75.203125 208.710938 74.453125 208.988281 73.589844 208.964844 Z M 73.589844 208.964844 " fill-opacity="1" fill-rule="nonzero"/><g fill="#000000" fill-opacity="1"><g transform="translate(185.398072, 161.49549)"><g><path d="M 12.515625 0.28125 L 14.3125 0.4375 L 16.828125 0.25 L 18.953125 -0.1875 L 19.59375 -0.546875 L 20.34375 -0.796875 L 20.953125 -1.078125 L 22.71875 -2.34375 L 23.734375 -3.34375 L 24.5625 -4.421875 L 25.3125 -5.71875 L 26.25 -8.453125 L 26.03125 -9.09375 L 25.3125 -9.5625 L 23.296875 -9.421875 L 22.578125 -9.53125 L 21.859375 -9.484375 L 21.140625 -9.53125 L 20.3125 -9.09375 L 19.734375 -8.515625 L 19.375 -7.84375 L 18.546875 -6.90625 L 17.96875 -6.40625 L 17.4375 -6.1875 L 16.171875 -5.5 L 14.265625 -5.390625 L 13.234375 -5.5 L 11.9375 -5.96875 L 10.671875 -6.609375 L 9.640625 -7.546875 L 8.84375 -8.8125 L 8.59375 -9.53125 L 8.34375 -10.03125 L 8.15625 -10.671875 L 8.046875 -11.46875 L 8.046875 -13.65625 L 8.3125 -15.09375 L 8.84375 -16.390625 L 9.203125 -17.078125 L 10.0625 -18.078125 L 10.9375 -18.765625 L 11.90625 -19.3125 L 14.3125 -19.625 L 15.859375 -19.5625 L 16.96875 -19.234375 L 17.609375 -18.984375 L 18.125 -18.59375 L 19.15625 -17.546875 L 19.5625 -17 L 20.234375 -16.328125 L 21.0625 -15.921875 L 21.71875 -16 L 22.46875 -15.96875 L 23.1875 -16 L 24.203125 -15.890625 L 25.28125 -16 L 25.890625 -16.28125 L 26.140625 -17 L 25.921875 -17.796875 L 25.671875 -18.4375 L 25.453125 -19.203125 L 25.0625 -19.78125 L 24.734375 -20.34375 L 24.234375 -20.953125 L 23.84375 -21.640625 L 22.828125 -22.6875 L 20.390625 -24.234375 L 16.9375 -25.390625 L 16.25 -25.421875 L 15.53125 -25.53125 L 13.296875 -25.5625 L 9.8125 -24.875 L 7.15625 -23.625 L 6.109375 -22.828125 L 4.5625 -21.421875 L 3.59375 -20.203125 L 2.90625 -19.15625 L 2.015625 -17.15625 L 1.65625 -15.671875 L 1.296875 -12.578125 L 1.515625 -9.953125 L 2.015625 -7.90625 L 3.5625 -4.78125 L 5.03125 -3.203125 L 6.65625 -1.796875 L 8.203125 -0.96875 L 9.8125 -0.28125 L 10.46875 -0.140625 L 11.1875 0.109375 L 11.828125 0.25 Z M 12.515625 0.28125 "/></g></g></g><g fill="#000000" fill-opacity="1"><g transform="translate(216.349242, 161.49549)"><g><path d="M 2.703125 -1.46875 L 3.0625 -0.359375 L 4.09375 0.109375 L 4.8125 0 L 5.96875 0.109375 L 6.546875 0.03125 L 7.625 0.03125 L 8.765625 -0.328125 L 9.09375 -1.359375 L 9.09375 -2.59375 L 9.171875 -3.234375 L 9.0625 -3.984375 L 9.125 -6.296875 L 9.453125 -7.015625 L 10.140625 -7.40625 L 12.21875 -7.125 L 12.9375 -6.5 L 13.375 -5.78125 L 13.65625 -5.140625 L 14.421875 -4.0625 L 15.09375 -2.765625 L 15.5 -2.234375 L 15.78125 -1.515625 L 16.171875 -0.90625 L 16.96875 -0.25 L 18.1875 0.078125 L 21.03125 0.03125 L 21.71875 0.109375 L 22.90625 0.078125 L 23.578125 -0.25 L 23.796875 -1.046875 L 23.40625 -1.828125 L 22.96875 -2.34375 L 22.6875 -3.015625 L 21.46875 -4.859375 L 21.140625 -5.5 L 19.984375 -7.375 L 19.5625 -7.90625 L 19.515625 -8.765625 L 19.84375 -9.5625 L 20.34375 -10.109375 L 20.859375 -10.53125 L 22.25 -13.046875 L 22.71875 -15.140625 L 22.65625 -17.40625 L 22.546875 -18.125 L 21.890625 -20.171875 L 21.609375 -20.78125 L 21.21875 -21.359375 L 19.15625 -23.515625 L 17.90625 -24.203125 L 16.53125 -24.65625 L 14.484375 -25.125 L 13.34375 -25.171875 L 12.296875 -25.09375 L 10.140625 -25.09375 L 9.421875 -25.234375 L 8.703125 -25.234375 L 8.046875 -25.0625 L 7.328125 -25.0625 L 6.609375 -25.203125 L 5.828125 -25.234375 L 3.703125 -25.0625 L 3.0625 -24.703125 L 2.625 -23.6875 L 2.65625 -15.453125 L 2.734375 -14.734375 L 2.625 -13.296875 L 2.65625 -12.515625 L 2.65625 -11.796875 L 2.734375 -11.109375 L 2.65625 -10.421875 L 2.625 -7.515625 L 2.703125 -6.796875 Z M 10.140625 -13.15625 L 9.421875 -13.546875 L 9.125 -14.125 L 9.125 -16.28125 L 9.0625 -16.890625 L 9.125 -18.40625 L 9.453125 -19.09375 L 10.203125 -19.375 L 10.9375 -19.34375 L 12.375 -19.484375 L 13.375 -19.265625 L 14.3125 -19.203125 L 15 -19.015625 L 15.890625 -17.90625 L 16.109375 -17.328125 L 16.25 -16.390625 L 16.140625 -15.3125 L 15.8125 -14.59375 L 15.421875 -14.0625 L 15.03125 -13.734375 L 14.375 -13.453125 L 13.34375 -13.1875 L 12.65625 -13.15625 L 10.9375 -13.234375 Z M 10.140625 -13.15625 "/></g></g></g><g fill="#000000" fill-opacity="1"><g transform="translate(244.820207, 161.49549)"><g><path d="M 12.515625 0.109375 L 17.65625 0.03125 L 18.40625 -0.28125 L 18.796875 -1.046875 L 18.796875 -4.671875 L 18.40625 -5.390625 L 17.65625 -5.71875 L 16.828125 -5.640625 L 16.140625 -5.75 L 14.3125 -5.78125 L 13.125 -5.640625 L 12.40625 -5.71875 L 11.609375 -5.6875 L 10.9375 -5.78125 L 10.140625 -5.71875 L 9.390625 -6.078125 L 9.09375 -6.71875 L 9.09375 -8.984375 L 9.421875 -9.75 L 10.0625 -10.140625 L 11.140625 -10.171875 L 12.296875 -10.0625 L 13.65625 -10.140625 L 15.140625 -10.109375 L 15.859375 -10.171875 L 16.6875 -10.140625 L 17.40625 -10.421875 L 17.65625 -11.140625 L 17.765625 -14.375 L 17.40625 -15.390625 L 16.578125 -15.859375 L 14.453125 -15.859375 L 13.703125 -15.78125 L 12.1875 -15.890625 L 10.109375 -15.8125 L 9.34375 -16.140625 L 9.0625 -17.25 L 9.0625 -18.375 L 9.390625 -19.0625 L 10.171875 -19.34375 L 10.859375 -19.3125 L 11.546875 -19.453125 L 16.6875 -19.375 L 17.359375 -19.421875 L 18.125 -19.84375 L 18.484375 -20.5 L 18.4375 -21.21875 L 18.484375 -21.9375 L 18.40625 -24.09375 L 18.078125 -24.765625 L 17.359375 -25.0625 L 16.609375 -25.0625 L 15.96875 -25.203125 L 13.046875 -25.171875 L 12.265625 -25.09375 L 11.546875 -25.171875 L 10.9375 -25.125 L 10.203125 -25.203125 L 7.265625 -25.125 L 6.546875 -25.234375 L 5.859375 -25.09375 L 5.21875 -25.171875 L 4.5 -25.09375 L 3.78125 -25.125 L 3.015625 -24.84375 L 2.625 -24.09375 L 2.703125 -22.71875 L 2.59375 -21.25 L 2.703125 -20.453125 L 2.625 -16.9375 L 2.734375 -16.171875 L 2.65625 -15.5 L 2.625 -12.546875 L 2.734375 -11.90625 L 2.703125 -6.078125 L 2.625 -5.390625 L 2.734375 -4.671875 L 2.625 -2.1875 L 2.703125 -1.40625 L 2.984375 -0.4375 L 4.0625 0.03125 L 6.65625 0.078125 L 7.4375 0 L 8.09375 0.03125 L 9.5625 -0.078125 L 10.25 0.078125 L 11.078125 0.109375 L 11.796875 0.03125 Z M 12.515625 0.109375 "/></g></g></g><g fill="#000000" fill-opacity="1"><g transform="translate(268.941811, 161.49549)"><g><path d="M 21.21875 0.078125 L 22.578125 -0.03125 L 23.265625 0.03125 L 24.375 0 L 25.390625 -0.1875 L 25.484375 -1.046875 L 25.234375 -1.875 L 24.703125 -3.203125 L 23.734375 -5.0625 L 23.21875 -6.40625 L 22.5 -7.6875 L 21.140625 -10.96875 L 20.78125 -11.5 L 20.421875 -12.1875 L 20.203125 -12.984375 L 19.875 -13.515625 L 19.671875 -14.09375 L 18.90625 -15.421875 L 18.65625 -16.171875 L 16.28125 -21.171875 L 16.078125 -21.890625 L 15.671875 -22.546875 L 15.453125 -23.1875 L 14.78125 -24.453125 L 14.171875 -25.09375 L 12.984375 -25.453125 L 11.828125 -25.0625 L 11.1875 -24.453125 L 10.859375 -23.84375 L 10.609375 -23.125 L 10.28125 -22.609375 L 8.84375 -19.3125 L 8.453125 -18.765625 L 8.265625 -18.046875 L 7.875 -17.359375 L 7.65625 -16.71875 L 3.984375 -9.03125 L 3.78125 -8.234375 L 3.421875 -7.6875 L 3.15625 -6.96875 L 2.515625 -5.828125 L 1.984375 -4.390625 L 1.578125 -3.890625 L 1.40625 -3.234375 L 0.6875 -1.796875 L 0.46875 -1.078125 L 0.640625 -0.1875 L 1.359375 0.03125 L 2.765625 -0.03125 L 3.484375 0.03125 L 5.5 -0.03125 L 6.328125 -0.28125 L 7.015625 -0.9375 L 7.65625 -2.125 L 8.34375 -2.796875 L 9.09375 -3.203125 L 9.78125 -3.09375 L 11.296875 -3.234375 L 11.9375 -3.125 L 15.453125 -3.15625 L 16.109375 -3.09375 L 16.890625 -3.203125 L 17.6875 -2.796875 L 18.375 -2.234375 L 18.703125 -1.546875 L 18.90625 -0.90625 L 19.625 -0.359375 L 20.453125 0 Z M 13.046875 -8.875 L 12.328125 -9.03125 L 11.5 -8.953125 L 10.9375 -9.203125 L 10.890625 -9.890625 L 12.578125 -13.765625 L 12.984375 -14.09375 L 13.484375 -13.8125 L 15.171875 -9.84375 L 15.03125 -9.203125 L 14.484375 -8.921875 Z M 13.046875 -8.875 "/></g></g></g><g fill="#000000" fill-opacity="1"><g transform="translate(298.56301, 161.49549)"><g><path d="M 9.390625 0.078125 L 11.796875 0 L 12.828125 -0.359375 L 13.1875 -1.359375 L 13.296875 -3.234375 L 13.1875 -4.609375 L 13.265625 -5.359375 L 13.234375 -6.796875 L 13.296875 -7.4375 L 13.1875 -8.234375 L 13.265625 -14.015625 L 13.15625 -14.78125 L 13.265625 -17.90625 L 13.546875 -18.984375 L 14.234375 -19.421875 L 15.640625 -19.484375 L 16.96875 -19.3125 L 17.71875 -19.421875 L 18.375 -19.375 L 18.984375 -19.78125 L 19.421875 -20.5625 L 19.453125 -23.984375 L 19.0625 -24.703125 L 18.375 -25.171875 L 16.140625 -25.171875 L 15.453125 -25.234375 L 14.703125 -25.125 L 14.015625 -25.203125 L 11.109375 -25.0625 L 10.390625 -25.203125 L 9.703125 -25.234375 L 8.953125 -25.125 L 8.15625 -25.203125 L 7.515625 -25.0625 L 5.390625 -25.171875 L 4.28125 -25.0625 L 1.765625 -25.203125 L 1.078125 -24.84375 L 0.640625 -24.015625 L 0.6875 -23.296875 L 0.609375 -21.5 L 0.6875 -20.390625 L 1 -19.734375 L 1.65625 -19.375 L 2.375 -19.453125 L 5.78125 -19.375 L 6.46875 -19.015625 L 6.859375 -18.296875 L 6.796875 -17.15625 L 6.859375 -16.140625 L 6.828125 -15.359375 L 6.859375 -14.640625 L 6.796875 -13.625 L 6.90625 -8.265625 L 6.828125 -7.546875 L 6.796875 -4.640625 L 6.859375 -3.890625 L 6.828125 -1.796875 L 6.765625 -1.109375 L 7.21875 -0.328125 L 8.265625 0.03125 Z M 9.390625 0.078125 "/></g></g></g><g fill="#000000" fill-opacity="1"><g transform="translate(322.181387, 161.49549)"><g><path d="M 12.515625 0.109375 L 17.65625 0.03125 L 18.40625 -0.28125 L 18.796875 -1.046875 L 18.796875 -4.671875 L 18.40625 -5.390625 L 17.65625 -5.71875 L 16.828125 -5.640625 L 16.140625 -5.75 L 14.3125 -5.78125 L 13.125 -5.640625 L 12.40625 -5.71875 L 11.609375 -5.6875 L 10.9375 -5.78125 L 10.140625 -5.71875 L 9.390625 -6.078125 L 9.09375 -6.71875 L 9.09375 -8.984375 L 9.421875 -9.75 L 10.0625 -10.140625 L 11.140625 -10.171875 L 12.296875 -10.0625 L 13.65625 -10.140625 L 15.140625 -10.109375 L 15.859375 -10.171875 L 16.6875 -10.140625 L 17.40625 -10.421875 L 17.65625 -11.140625 L 17.765625 -14.375 L 17.40625 -15.390625 L 16.578125 -15.859375 L 14.453125 -15.859375 L 13.703125 -15.78125 L 12.1875 -15.890625 L 10.109375 -15.8125 L 9.34375 -16.140625 L 9.0625 -17.25 L 9.0625 -18.375 L 9.390625 -19.0625 L 10.171875 -19.34375 L 10.859375 -19.3125 L 11.546875 -19.453125 L 16.6875 -19.375 L 17.359375 -19.421875 L 18.125 -19.84375 L 18.484375 -20.5 L 18.4375 -21.21875 L 18.484375 -21.9375 L 18.40625 -24.09375 L 18.078125 -24.765625 L 17.359375 -25.0625 L 16.609375 -25.0625 L 15.96875 -25.203125 L 13.046875 -25.171875 L 12.265625 -25.09375 L 11.546875 -25.171875 L 10.9375 -25.125 L 10.203125 -25.203125 L 7.265625 -25.125 L 6.546875 -25.234375 L 5.859375 -25.09375 L 5.21875 -25.171875 L 4.5 -25.09375 L 3.78125 -25.125 L 3.015625 -24.84375 L 2.625 -24.09375 L 2.703125 -22.71875 L 2.59375 -21.25 L 2.703125 -20.453125 L 2.625 -16.9375 L 2.734375 -16.171875 L 2.65625 -15.5 L 2.625 -12.546875 L 2.734375 -11.90625 L 2.703125 -6.078125 L 2.625 -5.390625 L 2.734375 -4.671875 L 2.625 -2.1875 L 2.703125 -1.40625 L 2.984375 -0.4375 L 4.0625 0.03125 L 6.65625 0.078125 L 7.4375 0 L 8.09375 0.03125 L 9.5625 -0.078125 L 10.25 0.078125 L 11.078125 0.109375 L 11.796875 0.03125 Z M 12.515625 0.109375 "/></g></g></g><g fill="#000000" fill-opacity="1"><g transform="translate(185.398072, 198.990356)"><g><path d="M 8.234375 -1.078125 L 8.515625 -0.28125 L 9.28125 0 L 10 0.03125 L 10.640625 -0.03125 L 11.75 0.03125 L 12.765625 -0.03125 L 13.484375 0.03125 L 14.203125 -0.359375 L 14.484375 -1.109375 L 14.59375 -5.28125 L 14.53125 -6 L 14.53125 -6.71875 L 14.640625 -7.375 L 14.59375 -9.453125 L 14.8125 -10.5 L 15.171875 -11.4375 L 19.734375 -18.953125 L 20.171875 -19.453125 L 22.46875 -23.265625 L 22.859375 -24.15625 L 22.71875 -24.953125 L 22.078125 -25.09375 L 20.671875 -25.125 L 19.921875 -25.0625 L 19.203125 -25.171875 L 17.796875 -25.125 L 17.1875 -25.171875 L 16.21875 -24.8125 L 15.5625 -24.203125 L 14.640625 -22.65625 L 14.203125 -21.578125 L 13.40625 -20.421875 L 13.046875 -19.671875 L 12.6875 -19.0625 L 12.078125 -17.6875 L 11.609375 -17.078125 L 11.21875 -17.078125 L 10.828125 -17.765625 L 10.421875 -18.34375 L 9.34375 -20.34375 L 8.953125 -20.953125 L 7.265625 -24.125 L 6.5 -24.8125 L 5.6875 -25.125 L 4.921875 -25.09375 L 4.3125 -25.234375 L 2.484375 -25.09375 L 0.828125 -25.203125 L 0.109375 -24.84375 L 0 -24.046875 L 0.359375 -23.21875 L 1.90625 -20.671875 L 2.296875 -20.171875 L 3.78125 -17.609375 L 4.640625 -16.46875 L 4.921875 -15.8125 L 7.6875 -11.4375 L 8.046875 -10.421875 L 8.234375 -9.453125 L 8.203125 -6.609375 L 8.265625 -5.890625 L 8.203125 -3.125 L 8.265625 -2.4375 Z M 8.234375 -1.078125 "/></g></g></g><g fill="#000000" fill-opacity="1"><g transform="translate(211.784209, 198.990356)"><g><path d="M 14.421875 0.46875 L 17.609375 0.140625 L 18.984375 -0.28125 L 22.1875 -1.71875 L 24.703125 -4.140625 L 25.171875 -4.78125 L 26.5625 -7.265625 L 26.828125 -7.953125 L 26.921875 -8.671875 L 27.140625 -9.234375 L 27.28125 -10.03125 L 27.46875 -12.546875 L 27.28125 -15.03125 L 27 -16.359375 L 26.71875 -17.109375 L 26.53125 -17.9375 L 25.890625 -19.125 L 25.640625 -19.78125 L 25.171875 -20.390625 L 24.734375 -20.8125 L 24.265625 -21.46875 L 22.71875 -22.859375 L 20.890625 -24.015625 L 16.171875 -25.484375 L 14.484375 -25.53125 L 11.96875 -25.390625 L 11.25 -25.234375 L 10.53125 -25.015625 L 9.890625 -24.734375 L 8.515625 -24.375 L 6.6875 -23.21875 L 6.1875 -22.796875 L 5.03125 -22 L 4.0625 -20.921875 L 2.84375 -19.125 L 2.515625 -18.515625 L 1.828125 -16.53125 L 1.546875 -15 L 1.40625 -10.828125 L 1.796875 -8.5625 L 2.34375 -7.328125 L 2.546875 -6.578125 L 2.90625 -5.9375 L 4.609375 -3.625 L 5.609375 -2.65625 L 6.078125 -2.125 L 8.515625 -0.828125 L 9.203125 -0.546875 L 12.265625 0.359375 Z M 13.40625 -5.859375 L 12.6875 -6.109375 L 12.046875 -6.1875 L 10.828125 -6.828125 L 9.703125 -7.796875 L 9.34375 -8.3125 L 8.875 -8.8125 L 8.203125 -10.828125 L 8.015625 -12.625 L 8.046875 -13.703125 L 8.3125 -15.03125 L 8.515625 -15.671875 L 8.953125 -16.171875 L 9.28125 -16.796875 L 9.75 -17.359375 L 10.28125 -17.828125 L 11.328125 -18.546875 L 11.96875 -18.875 L 12.734375 -19.0625 L 14.375 -19.203125 L 16.109375 -19.09375 L 18.015625 -18.265625 L 19.125 -17.4375 L 19.953125 -16.21875 L 20.234375 -15.5625 L 20.453125 -14.84375 L 20.703125 -14.203125 L 20.859375 -12.65625 L 20.640625 -10.859375 L 20.3125 -9.390625 L 19.921875 -8.84375 L 19.59375 -8.3125 L 19.15625 -7.65625 L 18.046875 -6.796875 L 17.40625 -6.5 L 16.828125 -6.1875 L 16.171875 -6.109375 L 15.5 -5.9375 Z M 13.40625 -5.859375 "/></g></g></g><g fill="#000000" fill-opacity="1"><g transform="translate(244.137236, 198.990356)"><g><path d="M 12.375 0.46875 L 13.453125 0.359375 L 14.125 0.390625 L 16.9375 -0.328125 L 18.234375 -1 L 19.421875 -1.796875 L 20.421875 -2.796875 L 21.25 -4.0625 L 21.46875 -4.78125 L 21.828125 -5.390625 L 22.140625 -6.90625 L 22.328125 -8.625 L 22.328125 -18.34375 L 22.25 -19.015625 L 22.328125 -19.8125 L 22.25 -20.390625 L 22.25 -23.375 L 22.359375 -24.09375 L 21.890625 -24.84375 L 21.109375 -25.09375 L 18.84375 -25.015625 L 17.328125 -25.125 L 16.578125 -24.765625 L 16.171875 -23.984375 L 16.25 -9.8125 L 16 -7.59375 L 15.78125 -7.046875 L 15.390625 -6.328125 L 14.78125 -5.890625 L 13.515625 -5.421875 L 11.359375 -5.421875 L 10.53125 -5.609375 L 9.921875 -5.96875 L 9.34375 -6.40625 L 8.921875 -6.96875 L 8.703125 -7.65625 L 8.484375 -9.75 L 8.59375 -21.3125 L 8.515625 -21.859375 L 8.59375 -23.015625 L 8.515625 -24.046875 L 8.09375 -24.84375 L 7.328125 -25.171875 L 6.65625 -25.171875 L 5.9375 -25.0625 L 4.390625 -25.203125 L 3.625 -25.09375 L 2.875 -24.8125 L 2.40625 -24.125 L 2.484375 -23.40625 L 2.484375 -22.546875 L 2.40625 -21.96875 L 2.515625 -16.9375 L 2.40625 -16.21875 L 2.484375 -15.53125 L 2.375 -9.75 L 2.59375 -6.859375 L 2.953125 -5.390625 L 3.515625 -4.171875 L 4.34375 -2.875 L 4.78125 -2.375 L 5.328125 -1.90625 L 6.46875 -1.15625 L 7.1875 -0.828125 L 7.734375 -0.5 L 9.09375 0.109375 L 10.5 0.390625 L 11.21875 0.390625 Z M 12.375 0.46875 "/></g></g></g><g fill="#000000" fill-opacity="1"><g transform="translate(272.464411, 198.990356)"><g><path d="M 2.703125 -1.46875 L 3.0625 -0.359375 L 4.09375 0.109375 L 4.8125 0 L 5.96875 0.109375 L 6.546875 0.03125 L 7.625 0.03125 L 8.765625 -0.328125 L 9.09375 -1.359375 L 9.09375 -2.59375 L 9.171875 -3.234375 L 9.0625 -3.984375 L 9.125 -6.296875 L 9.453125 -7.015625 L 10.140625 -7.40625 L 12.21875 -7.125 L 12.9375 -6.5 L 13.375 -5.78125 L 13.65625 -5.140625 L 14.421875 -4.0625 L 15.09375 -2.765625 L 15.5 -2.234375 L 15.78125 -1.515625 L 16.171875 -0.90625 L 16.96875 -0.25 L 18.1875 0.078125 L 21.03125 0.03125 L 21.71875 0.109375 L 22.90625 0.078125 L 23.578125 -0.25 L 23.796875 -1.046875 L 23.40625 -1.828125 L 22.96875 -2.34375 L 22.6875 -3.015625 L 21.46875 -4.859375 L 21.140625 -5.5 L 19.984375 -7.375 L 19.5625 -7.90625 L 19.515625 -8.765625 L 19.84375 -9.5625 L 20.34375 -10.109375 L 20.859375 -10.53125 L 22.25 -13.046875 L 22.71875 -15.140625 L 22.65625 -17.40625 L 22.546875 -18.125 L 21.890625 -20.171875 L 21.609375 -20.78125 L 21.21875 -21.359375 L 19.15625 -23.515625 L 17.90625 -24.203125 L 16.53125 -24.65625 L 14.484375 -25.125 L 13.34375 -25.171875 L 12.296875 -25.09375 L 10.140625 -25.09375 L 9.421875 -25.234375 L 8.703125 -25.234375 L 8.046875 -25.0625 L 7.328125 -25.0625 L 6.609375 -25.203125 L 5.828125 -25.234375 L 3.703125 -25.0625 L 3.0625 -24.703125 L 2.625 -23.6875 L 2.65625 -15.453125 L 2.734375 -14.734375 L 2.625 -13.296875 L 2.65625 -12.515625 L 2.65625 -11.796875 L 2.734375 -11.109375 L 2.65625 -10.421875 L 2.625 -7.515625 L 2.703125 -6.796875 Z M 10.140625 -13.15625 L 9.421875 -13.546875 L 9.125 -14.125 L 9.125 -16.28125 L 9.0625 -16.890625 L 9.125 -18.40625 L 9.453125 -19.09375 L 10.203125 -19.375 L 10.9375 -19.34375 L 12.375 -19.484375 L 13.375 -19.265625 L 14.3125 -19.203125 L 15 -19.015625 L 15.890625 -17.90625 L 16.109375 -17.328125 L 16.25 -16.390625 L 16.140625 -15.3125 L 15.8125 -14.59375 L 15.421875 -14.0625 L 15.03125 -13.734375 L 14.375 -13.453125 L 13.34375 -13.1875 L 12.65625 -13.15625 L 10.9375 -13.234375 Z M 10.140625 -13.15625 "/></g></g></g><g fill="#000000" fill-opacity="1"><g transform="translate(185.398072, 236.485221)"><g><path d="M 4.8125 0.109375 L 6.578125 0.03125 L 7.21875 0.078125 L 8.046875 0 L 8.8125 -0.28125 L 9.125 -1.046875 L 9.09375 -1.765625 L 9.125 -2.546875 L 9.0625 -3.890625 L 9.125 -4.5625 L 9.09375 -5.390625 L 9.421875 -6.046875 L 10.25 -6.4375 L 11.03125 -6.5 L 11.796875 -6.359375 L 15.5 -6.65625 L 18.90625 -8.015625 L 19.453125 -8.453125 L 19.953125 -9.03125 L 20.421875 -9.484375 L 20.890625 -10.03125 L 21.640625 -11.1875 L 22.25 -12.578125 L 22.359375 -13.375 L 22.578125 -13.953125 L 22.65625 -16.890625 L 22.5 -17.515625 L 22.40625 -18.296875 L 21.96875 -19.625 L 21.28125 -20.859375 L 20.421875 -22.046875 L 18.796875 -23.4375 L 17.609375 -24.234375 L 16.171875 -24.65625 L 15.5625 -24.921875 L 14.84375 -24.921875 L 14.125 -25.171875 L 13.046875 -25.203125 L 11.90625 -25.171875 L 11.109375 -25.0625 L 8.921875 -25.09375 L 8.203125 -25.203125 L 5.96875 -25.0625 L 5.171875 -25.09375 L 4.53125 -25.203125 L 3.78125 -25.0625 L 3.015625 -24.65625 L 2.703125 -24.09375 L 2.734375 -19.734375 L 2.59375 -18.296875 L 2.65625 -17.609375 L 2.625 -8.3125 L 2.703125 -7.625 L 2.65625 -0.96875 L 3.0625 -0.28125 L 4.171875 0.078125 Z M 10.203125 -12.1875 L 9.484375 -12.625 L 9.171875 -13.234375 L 9.0625 -16.140625 L 9.125 -16.890625 L 9.125 -18.375 L 9.484375 -19.0625 L 10.25 -19.421875 L 13.984375 -19.3125 L 14.703125 -18.984375 L 15.28125 -18.59375 L 15.75 -18.125 L 16.109375 -17.40625 L 16.21875 -16.75 L 16.28125 -15.75 L 16.21875 -14.78125 L 15.96875 -14.125 L 15.640625 -13.546875 L 15.171875 -12.984375 L 14.59375 -12.546875 L 14.015625 -12.375 L 12.90625 -12.21875 L 11.078125 -12.265625 Z M 10.203125 -12.1875 "/></g></g></g><g fill="#000000" fill-opacity="1"><g transform="translate(212.575017, 236.485221)"><g><path d="M 14.421875 0.46875 L 17.609375 0.140625 L 18.984375 -0.28125 L 22.1875 -1.71875 L 24.703125 -4.140625 L 25.171875 -4.78125 L 26.5625 -7.265625 L 26.828125 -7.953125 L 26.921875 -8.671875 L 27.140625 -9.234375 L 27.28125 -10.03125 L 27.46875 -12.546875 L 27.28125 -15.03125 L 27 -16.359375 L 26.71875 -17.109375 L 26.53125 -17.9375 L 25.890625 -19.125 L 25.640625 -19.78125 L 25.171875 -20.390625 L 24.734375 -20.8125 L 24.265625 -21.46875 L 22.71875 -22.859375 L 20.890625 -24.015625 L 16.171875 -25.484375 L 14.484375 -25.53125 L 11.96875 -25.390625 L 11.25 -25.234375 L 10.53125 -25.015625 L 9.890625 -24.734375 L 8.515625 -24.375 L 6.6875 -23.21875 L 6.1875 -22.796875 L 5.03125 -22 L 4.0625 -20.921875 L 2.84375 -19.125 L 2.515625 -18.515625 L 1.828125 -16.53125 L 1.546875 -15 L 1.40625 -10.828125 L 1.796875 -8.5625 L 2.34375 -7.328125 L 2.546875 -6.578125 L 2.90625 -5.9375 L 4.609375 -3.625 L 5.609375 -2.65625 L 6.078125 -2.125 L 8.515625 -0.828125 L 9.203125 -0.546875 L 12.265625 0.359375 Z M 13.40625 -5.859375 L 12.6875 -6.109375 L 12.046875 -6.1875 L 10.828125 -6.828125 L 9.703125 -7.796875 L 9.34375 -8.3125 L 8.875 -8.8125 L 8.203125 -10.828125 L 8.015625 -12.625 L 8.046875 -13.703125 L 8.3125 -15.03125 L 8.515625 -15.671875 L 8.953125 -16.171875 L 9.28125 -16.796875 L 9.75 -17.359375 L 10.28125 -17.828125 L 11.328125 -18.546875 L 11.96875 -18.875 L 12.734375 -19.0625 L 14.375 -19.203125 L 16.109375 -19.09375 L 18.015625 -18.265625 L 19.125 -17.4375 L 19.953125 -16.21875 L 20.234375 -15.5625 L 20.453125 -14.84375 L 20.703125 -14.203125 L 20.859375 -12.65625 L 20.640625 -10.859375 L 20.3125 -9.390625 L 19.921875 -8.84375 L 19.59375 -8.3125 L 19.15625 -7.65625 L 18.046875 -6.796875 L 17.40625 -6.5 L 16.828125 -6.1875 L 16.171875 -6.109375 L 15.5 -5.9375 Z M 13.40625 -5.859375 "/></g></g></g><g fill="#000000" fill-opacity="1"><g transform="translate(244.928044, 236.485221)"><g><path d="M 9.671875 0.328125 L 12.515625 0.390625 L 13.234375 0.328125 L 13.953125 0.140625 L 14.671875 0.03125 L 15.390625 -0.25 L 16.03125 -0.328125 L 16.71875 -0.640625 L 19.15625 -2.125 L 20.203125 -3.203125 L 20.5625 -3.703125 L 20.953125 -4.5 L 21.171875 -5.140625 L 21.390625 -5.75 L 21.609375 -7.546875 L 21.53125 -8.703125 L 21 -10.78125 L 20.59375 -11.359375 L 19.671875 -12.4375 L 19.015625 -13.015625 L 18.4375 -13.296875 L 17.796875 -13.703125 L 15 -14.5625 L 14.265625 -14.671875 L 13.546875 -14.703125 L 12.796875 -14.84375 L 11.75 -14.84375 L 9.84375 -15.25 L 8.515625 -15.890625 L 7.984375 -16.390625 L 7.84375 -17.46875 L 8.015625 -18.4375 L 8.453125 -18.90625 L 8.984375 -19.3125 L 9.5625 -19.625 L 10.203125 -19.78125 L 11.359375 -19.8125 L 12.515625 -19.671875 L 13.15625 -19.484375 L 13.8125 -19.0625 L 14.421875 -18.546875 L 14.953125 -17.828125 L 15.75 -17.359375 L 17.4375 -17.515625 L 18.40625 -17.4375 L 19.125 -17.4375 L 19.78125 -17.359375 L 20.453125 -17.875 L 20.75 -18.484375 L 20.59375 -19.15625 L 20.53125 -19.84375 L 19.515625 -21.71875 L 18.734375 -22.796875 L 16.359375 -24.453125 L 14.34375 -25.125 L 12.9375 -25.421875 L 10.171875 -25.484375 L 9.390625 -25.28125 L 8.671875 -25.234375 L 8.015625 -25.125 L 6.65625 -24.703125 L 5.421875 -23.984375 L 3.703125 -22.796875 L 2.4375 -21.109375 L 1.796875 -19.125 L 1.6875 -17.359375 L 1.71875 -16.25 L 1.984375 -14.8125 L 2.546875 -13.546875 L 3.890625 -11.90625 L 6.328125 -10.5625 L 7.625 -10.140625 L 13.265625 -9.484375 L 14.5625 -8.875 L 15.03125 -8.453125 L 15.25 -7.546875 L 14.953125 -6.65625 L 14.484375 -6.109375 L 13.265625 -5.578125 L 12.15625 -5.5 L 11.5 -5.390625 L 9.671875 -5.578125 L 9.0625 -5.890625 L 8.453125 -6.296875 L 7.265625 -7.59375 L 6.546875 -7.875 L 5.890625 -7.796875 L 5.21875 -7.90625 L 2.4375 -7.765625 L 1.796875 -7.484375 L 1.515625 -6.71875 L 1.625 -6 L 1.765625 -5.28125 L 1.984375 -4.640625 L 2.65625 -3.3125 L 3.15625 -2.84375 L 3.625 -2.296875 L 4.890625 -1.515625 L 5.390625 -0.96875 L 6.078125 -0.640625 L 6.796875 -0.4375 L 8.203125 0.078125 Z M 9.671875 0.328125 "/></g></g></g><g fill="#000000" fill-opacity="1"><g transform="translate(271.386082, 236.485221)"><g><path d="M 9.390625 0.078125 L 11.796875 0 L 12.828125 -0.359375 L 13.1875 -1.359375 L 13.296875 -3.234375 L 13.1875 -4.609375 L 13.265625 -5.359375 L 13.234375 -6.796875 L 13.296875 -7.4375 L 13.1875 -8.234375 L 13.265625 -14.015625 L 13.15625 -14.78125 L 13.265625 -17.90625 L 13.546875 -18.984375 L 14.234375 -19.421875 L 15.640625 -19.484375 L 16.96875 -19.3125 L 17.71875 -19.421875 L 18.375 -19.375 L 18.984375 -19.78125 L 19.421875 -20.5625 L 19.453125 -23.984375 L 19.0625 -24.703125 L 18.375 -25.171875 L 16.140625 -25.171875 L 15.453125 -25.234375 L 14.703125 -25.125 L 14.015625 -25.203125 L 11.109375 -25.0625 L 10.390625 -25.203125 L 9.703125 -25.234375 L 8.953125 -25.125 L 8.15625 -25.203125 L 7.515625 -25.0625 L 5.390625 -25.171875 L 4.28125 -25.0625 L 1.765625 -25.203125 L 1.078125 -24.84375 L 0.640625 -24.015625 L 0.6875 -23.296875 L 0.609375 -21.5 L 0.6875 -20.390625 L 1 -19.734375 L 1.65625 -19.375 L 2.375 -19.453125 L 5.78125 -19.375 L 6.46875 -19.015625 L 6.859375 -18.296875 L 6.796875 -17.15625 L 6.859375 -16.140625 L 6.828125 -15.359375 L 6.859375 -14.640625 L 6.796875 -13.625 L 6.90625 -8.265625 L 6.828125 -7.546875 L 6.796875 -4.640625 L 6.859375 -3.890625 L 6.828125 -1.796875 L 6.765625 -1.109375 L 7.21875 -0.328125 L 8.265625 0.03125 Z M 9.390625 0.078125 "/></g></g></g><g fill="#000000" fill-opacity="1"><g transform="translate(295.004459, 236.485221)"><g><path d="M 9.671875 0.328125 L 12.515625 0.390625 L 13.234375 0.328125 L 13.953125 0.140625 L 14.671875 0.03125 L 15.390625 -0.25 L 16.03125 -0.328125 L 16.71875 -0.640625 L 19.15625 -2.125 L 20.203125 -3.203125 L 20.5625 -3.703125 L 20.953125 -4.5 L 21.171875 -5.140625 L 21.390625 -5.75 L 21.609375 -7.546875 L 21.53125 -8.703125 L 21 -10.78125 L 20.59375 -11.359375 L 19.671875 -12.4375 L 19.015625 -13.015625 L 18.4375 -13.296875 L 17.796875 -13.703125 L 15 -14.5625 L 14.265625 -14.671875 L 13.546875 -14.703125 L 12.796875 -14.84375 L 11.75 -14.84375 L 9.84375 -15.25 L 8.515625 -15.890625 L 7.984375 -16.390625 L 7.84375 -17.46875 L 8.015625 -18.4375 L 8.453125 -18.90625 L 8.984375 -19.3125 L 9.5625 -19.625 L 10.203125 -19.78125 L 11.359375 -19.8125 L 12.515625 -19.671875 L 13.15625 -19.484375 L 13.8125 -19.0625 L 14.421875 -18.546875 L 14.953125 -17.828125 L 15.75 -17.359375 L 17.4375 -17.515625 L 18.40625 -17.4375 L 19.125 -17.4375 L 19.78125 -17.359375 L 20.453125 -17.875 L 20.75 -18.484375 L 20.59375 -19.15625 L 20.53125 -19.84375 L 19.515625 -21.71875 L 18.734375 -22.796875 L 16.359375 -24.453125 L 14.34375 -25.125 L 12.9375 -25.421875 L 10.171875 -25.484375 L 9.390625 -25.28125 L 8.671875 -25.234375 L 8.015625 -25.125 L 6.65625 -24.703125 L 5.421875 -23.984375 L 3.703125 -22.796875 L 2.4375 -21.109375 L 1.796875 -19.125 L 1.6875 -17.359375 L 1.71875 -16.25 L 1.984375 -14.8125 L 2.546875 -13.546875 L 3.890625 -11.90625 L 6.328125 -10.5625 L 7.625 -10.140625 L 13.265625 -9.484375 L 14.5625 -8.875 L 15.03125 -8.453125 L 15.25 -7.546875 L 14.953125 -6.65625 L 14.484375 -6.109375 L 13.265625 -5.578125 L 12.15625 -5.5 L 11.5 -5.390625 L 9.671875 -5.578125 L 9.0625 -5.890625 L 8.453125 -6.296875 L 7.265625 -7.59375 L 6.546875 -7.875 L 5.890625 -7.796875 L 5.21875 -7.90625 L 2.4375 -7.765625 L 1.796875 -7.484375 L 1.515625 -6.71875 L 1.625 -6 L 1.765625 -5.28125 L 1.984375 -4.640625 L 2.65625 -3.3125 L 3.15625 -2.84375 L 3.625 -2.296875 L 4.890625 -1.515625 L 5.390625 -0.96875 L 6.078125 -0.640625 L 6.796875 -0.4375 L 8.203125 0.078125 Z M 9.671875 0.328125 "/></g></g></g></svg>